<svg xmlns="http://www.w3.org/2000/svg" width="520" height="520" viewBox="0 0 520 520"><defs><style>.cls-1{fill:#fff;}</style></defs><title>Notioly New</title><g id="_145.In-The-Park" data-name="145.In-The-Park"><path class="cls-1" d="M276.79,303.14a16.3,16.3,0,0,1-6.22.34,13.32,13.32,0,0,1-2.23-.51,19.77,19.77,0,0,1-6.64-4.11c-.85-.76-1.68-1.56-2.46-2.38a29.57,29.57,0,0,1-2.79-3.34c-.53-.73.54-.12,1.69,1.06a39.69,39.69,0,0,0,6.56,5.68,14.3,14.3,0,0,0,4.77,2.12,14.07,14.07,0,0,0,5.71.05,15.76,15.76,0,0,0,3.4-1.06,16.76,16.76,0,0,0,4.55-2.92,16.38,16.38,0,0,0,2.6-3.23c.16-.26.31-.51.48-.77.56-1,.83-1.24,1.33-1.24a1.3,1.3,0,0,1,.34,0c.34.06.33.6,0,1.41a16.33,16.33,0,0,1-5.31,6.27,16.85,16.85,0,0,1-5.72,2.68Z"/><path class="cls-1" d="M372.85,321.1s-6.52-5.48-.39-17.09c0,0-7,2.94-7.77,7.86s-.49,9.69,3.54,10S372.85,321.1,372.85,321.1Z"/><path class="cls-1" d="M95.41,319.09s-7.2-3.93-1.07-15.55c0,0-6.34,1.4-7.09,6.32s-.49,9.69,3.54,10.05S95.41,319.09,95.41,319.09Z"/><path class="cls-1" d="M100.46,345.43a19.32,19.32,0,0,0,2-1.86c.22-.25.39-.53.61-.79a11.18,11.18,0,0,0,1.92-2.95,4.31,4.31,0,0,0,.31-1.48c0-.65-.15-1.2-.12-1.82,0-.2.51-.39,1.06-.36a1.27,1.27,0,0,1,1.27.87,6.87,6.87,0,0,1-1.2,4.93c-.55.8-.94,1.7-1.52,2.48a14.2,14.2,0,0,1-2.15,2.3,18,18,0,0,1-1.53,1.2,11.53,11.53,0,0,1-2.64,1.43,5.46,5.46,0,0,1-1.24.37,2.42,2.42,0,0,1-1.55-.25,2,2,0,0,1-.62-.45c-.29-.34-.41-.64-.34-.85a.83.83,0,0,1,.44-.52c.12-.06.23-.14.35-.19a1.53,1.53,0,0,1,1.09.06c.17.09.29.06.34,0a.7.7,0,0,1,.25-.13,6.81,6.81,0,0,0,1.17-.54,12,12,0,0,0,2.07-1.5Z"/><path class="cls-1" d="M124.06,335.67c1.57,4.73,1.22,9-2.47,12.31l-4.39-.15c3.77-3.34,4.22-7.64,2.21-12Z"/><path class="cls-1" d="M262.82,345.73a5.34,5.34,0,0,0,1-1.47c.09-.2.11-.42.19-.64a6.36,6.36,0,0,0,.48-2.44,4.21,4.21,0,0,0-.16-1.12,6,6,0,0,1-.36-1.42c0-.16.33-.28.7-.28a1,1,0,0,1,.94.42,6.16,6.16,0,0,1,.52,3.39c-.09.69-.06,1.42-.21,2.13a7.21,7.21,0,0,1-1,2.18,9.25,9.25,0,0,1-.89,1.17,8.53,8.53,0,0,1-1.72,1.35c-.46.31-.91.64-1.4.92a2.11,2.11,0,0,1-.34.16c-.45.09-.63,0-.83-.46a1.51,1.51,0,0,1-.13-.29.93.93,0,0,1,.17-.92c.65-.67,1.25-1.11,1.78-1.62a6.27,6.27,0,0,0,1.22-1.09Z"/><path class="cls-1" d="M275.16,344.65a5.14,5.14,0,0,0,1-1.1,3.15,3.15,0,0,0,.2-.47,3.75,3.75,0,0,0,.53-1.81,2.23,2.23,0,0,0-.22-.83,3.08,3.08,0,0,1-.44-1.05c0-.14.34-.37.75-.49s.89-.14,1.07.09a4.07,4.07,0,0,1,.69,3,18.89,18.89,0,0,1-.3,1.88,6.77,6.77,0,0,1-.9,1.78,9.45,9.45,0,0,1-.73.94c-.38.45-.81.83-1.17,1.27s-.47.78-.73,1.14a.6.6,0,0,1-.22.2c-.33.17-.54.09-.95-.27l-.27-.25a1.31,1.31,0,0,1-.38-1,3.31,3.31,0,0,1,.09-.69,4,4,0,0,1,.25-.51,5.79,5.79,0,0,1,.67-.8c.35-.37.71-.72,1-1.1Z"/><path class="cls-1" d="M296,338.67c4.35,3.82,2.32,7.39-.59,10.42l-5.68-.32c3.49-2.55,6.22-7.24,1.78-10.42Z"/><path class="cls-1" d="M338.6,349,318.11,349l-7.47.05-26.34-.1c-3.89,0-7.81,0-11.67.08-5,.06-9.95.25-14.92,0-1.55-.11-1.34-.38,0-.78a24.41,24.41,0,0,1,6.58-1c10.14-.2,20.27-.25,30.5-.08,6.12.1,12.48,0,18.74-.06l20.64,0,12.7,0c6.41,0,12.85,0,19.21-.12l3.69-.07A24,24,0,0,0,380,344.3a20.69,20.69,0,0,0,2.56-1.65,22.94,22.94,0,0,0,2.93-2.72,5.39,5.39,0,0,1,1.49-1.2,4.31,4.31,0,0,1,.62-.3c.28-.07.3.29.07,1a6,6,0,0,1-.22.63c-.12.22-.25.46-.41.72a10,10,0,0,1-1.23,1.68,17.51,17.51,0,0,1-5.71,4.12,24.33,24.33,0,0,1-6.83,2,27.11,27.11,0,0,1-3.59.27l-3.45,0-6.93.05-20.67.07Z"/><path class="cls-1" d="M189.77,346.86c1.1,0,2.2.07,3.31.08.4,0,.8-.06,1.2-.05,1.42.05,2.85.1,4.28.11a17.09,17.09,0,0,0,1.89-.1l1.2-.12a5,5,0,0,1,1.22.13c.26.06.24.39,0,.76a1.81,1.81,0,0,1-1,.94,27,27,0,0,1-4.93.13,28.17,28.17,0,0,0-3,.11c-1.12,0-2.24,0-3.36,0l-2.07,0c-1.05,0-2.1-.07-3.15-.06-.81,0-1.61.12-2.44.12-.18,0-.36,0-.54,0-.69-.06-.89-.25-.93-.8,0-.12,0-.25,0-.37a.84.84,0,0,1,.8-.78,27,27,0,0,1,4.26-.19l3.3,0Z"/><path class="cls-1" d="M90.59,347.17c3.41.05,6.81.09,10.22.1l3.73-.06,13.15.08c1.94,0,3.9,0,5.83-.08a48.8,48.8,0,0,1,7.45.12c.77.09.67.39,0,.76a8.25,8.25,0,0,1-3.28,1c-5,.24-10.1.32-15.2.17-3.06-.08-6.23.1-9.35.14l-10.31.06H86.51l-9.61-.06a26.26,26.26,0,0,1-7.5-1.14c-.53-.16-1.05-.33-1.56-.54-1.92-.78-2.39-1.3-2.51-2a2.17,2.17,0,0,1-.1-.45c0-.21.21-.29.63-.34a4.63,4.63,0,0,1,1.69.26,59.24,59.24,0,0,0,6.2,1.57,19.38,19.38,0,0,0,3.12.3l3.43,0,10.29.1Z"/><path class="cls-1" d="M52.36,449.49a17.16,17.16,0,0,0-1.9-1.43,7.88,7.88,0,0,0-.76-.4,5.26,5.26,0,0,0-1.35-.55c-.44-.09-.9-.07-1.05.26a1.18,1.18,0,0,0,.09,1.1,4,4,0,0,0,1,1.25c.13.11.05.23-.16.27a1.11,1.11,0,0,1-.89-.26,2.75,2.75,0,0,1-1-1.91,1.51,1.51,0,0,1,.49-1.23,1.69,1.69,0,0,1,1.2-.36,6.82,6.82,0,0,1,2.34.71,13.42,13.42,0,0,1,2.17,1.36c.41.32.8.66,1.2,1,.59.51,1.15,1,1.74,1.53s1,.69,1.43,1l.31.22c.38.29.44.46.36.74,0,.06,0,.13,0,.18s-.35.22-.7.07a11.09,11.09,0,0,1-2.69-1.94c-.62-.54-1.21-1.1-1.84-1.61Z"/><path class="cls-1" d="M58.55,442.6a5.79,5.79,0,0,0-.45,2.12c0,.3,0,.6,0,.9a18.52,18.52,0,0,0,.11,3.16c.08.47.21.92.32,1.36a11,11,0,0,1,.52,1.72c0,.19-.26.31-.62.29a1.23,1.23,0,0,1-1-.49,8.26,8.26,0,0,1-.79-1.87,9.07,9.07,0,0,1-.19-2c0-.8-.15-1.61-.16-2.42a9.8,9.8,0,0,1,.29-2.75,6.19,6.19,0,0,1,.7-1.64,3.3,3.3,0,0,1,2.35-1.59,3.61,3.61,0,0,1,2.23.41,2.48,2.48,0,0,1,.4.26.85.85,0,0,1,.34.53.94.94,0,0,1-.17.51,2.11,2.11,0,0,1-.14.22.65.65,0,0,1-.38.21.92.92,0,0,1-.52,0,6.12,6.12,0,0,0-1.2-.26,1,1,0,0,0-.65.11,2.3,2.3,0,0,0-.95,1.24Z"/><path class="cls-1" d="M312.05,444.59a7,7,0,0,0,.5,2.05,6.94,6.94,0,0,0,.38.71,9.3,9.3,0,0,0,1.68,2.4,4.59,4.59,0,0,0,1.07.78l.76.37a4.78,4.78,0,0,1,.7.53c.13.14,0,.45-.28.74a1.46,1.46,0,0,1-1.15.49,5.6,5.6,0,0,1-1.82-1,5.7,5.7,0,0,1-1.43-1.51c-.45-.7-1-1.31-1.45-2.05a9.2,9.2,0,0,1-.92-2.59,5.72,5.72,0,0,1-.07-1.81,2.77,2.77,0,0,1,.6-1.4,2.73,2.73,0,0,1,1.31-.81,4.2,4.2,0,0,1,2.16-.1,1.76,1.76,0,0,1,.45.12c.5.29.55.56.46.95a2,2,0,0,1-.07.26.92.92,0,0,1-.77.46c-.28.07-.51.07-.73.11a4.86,4.86,0,0,1-.57.07,1.11,1.11,0,0,0-.59.2c-.06,0-.26.35-.17,1Z"/><path class="cls-1" d="M315.22,437.23l.42-.23c.28-.05.56-.17.78-.23a2.39,2.39,0,0,1,.52-.1c.34,0,.68-.07,1-.08l1,.08c.32,0,.63.12.94.19a10.44,10.44,0,0,1,1.41.4,15.8,15.8,0,0,1,4.06,2.73c.54.47,1.07.94,1.57,1.44a4.87,4.87,0,0,1,1.47,2.41c.06.33-.28.33-.68.24a2.34,2.34,0,0,1-1.17-.49c-1.12-1.06-2.3-2.24-3.62-3.27a7.76,7.76,0,0,0-2.72-1.26,5.85,5.85,0,0,0-3.06-.22c-.16.07-.17,0-.25.07a.5.5,0,0,0-.43.62c0,.07,0,.14,0,.21s.06.22.1.33a5.9,5.9,0,0,0,.29.71,9.28,9.28,0,0,0,.82,1.38,15.4,15.4,0,0,0,1.69,1.83,4.64,4.64,0,0,1,.38.39c.44.51.48.75.25,1.2a2.85,2.85,0,0,1-.16.3c-.19.32-.64.33-1.12,0a10.81,10.81,0,0,1-3.51-3.63,9.61,9.61,0,0,1-.51-.9c-.07-.16-.15-.33-.22-.51a5.45,5.45,0,0,1-.21-.62,3.37,3.37,0,0,1-.08-1.72,2.39,2.39,0,0,1,.95-1.35Z"/><path class="cls-1" d="M72.45,315.93a22,22,0,0,0,1,8.66,18.26,18.26,0,0,0,1.33,2.87,15.17,15.17,0,0,0,8.36,7.08,17.52,17.52,0,0,0,5,.81,15.14,15.14,0,0,0,1.65,0,12.79,12.79,0,0,0,1.64-.12c.55-.06,1.11-.06,1.67-.11l1.67-.17c.7-.05.69.24.18.7a7.9,7.9,0,0,1-1.12.8,6.16,6.16,0,0,1-1.74.73,19,19,0,0,1-7.34.2,16.26,16.26,0,0,1-6.94-2.88,19.58,19.58,0,0,1-5.89-7,22.24,22.24,0,0,1-2-9.62,27.52,27.52,0,0,1,.67-5.94,34.92,34.92,0,0,1,3-8.43,45.31,45.31,0,0,1,3.51-5.89c.31-.4.6-.8.93-1.19a5,5,0,0,1,1.47-1.36,1.53,1.53,0,0,1,1-.25,2.35,2.35,0,0,1,.42.06c.38.13.1.92-.63,2a52.64,52.64,0,0,0-3.27,4.93,35.42,35.42,0,0,0-2.6,5.41,28,28,0,0,0-1.94,8.67Z"/><path class="cls-1" d="M349.54,315a19.71,19.71,0,0,0,1.56,8.49,20.87,20.87,0,0,0,1.57,2.76,19.08,19.08,0,0,0,8.59,7.19,17.7,17.7,0,0,0,5,1.24,13,13,0,0,0,1.64.14c.55,0,1.1.07,1.65,0s1.11,0,1.67,0l1.67,0c.7,0,.67.28.12.7a7,7,0,0,1-3,1.3,19.38,19.38,0,0,1-14-3.67,24.44,24.44,0,0,1-6.12-6.65,21.14,21.14,0,0,1-2.76-9.44,22,22,0,0,1,.49-6,26,26,0,0,1,3.41-8.32,36.61,36.61,0,0,1,4.12-5.53c.35-.36.69-.72,1.05-1.08a5,5,0,0,1,1.63-1.17,1.49,1.49,0,0,1,1-.12,1.89,1.89,0,0,1,.41.1c.36.18,0,.93-.86,1.94-.69.69-1.31,1.45-2,2.17s-1.27,1.51-1.81,2.34a26.23,26.23,0,0,0-3,5.11,21.19,21.19,0,0,0-2,8.48Z"/><path class="cls-1" d="M474.85,285.46A30.27,30.27,0,0,1,468.19,298a43.18,43.18,0,0,1-3.53,3.74A79.37,79.37,0,0,1,450,312c-2.28,1.31-4.61,2.56-6.91,3.78-3,1.57-5.92,3.12-9,4.46-.95.42-1,0-.38-.7a12.87,12.87,0,0,1,3.55-2.76c3-1.63,6-3.25,8.91-4.92s5.91-3.31,8.77-5.12a52.22,52.22,0,0,0,9.57-7.81,31.38,31.38,0,0,0,7.34-11.17,26.19,26.19,0,0,0,1.53-8.11,27.88,27.88,0,0,0-.51-6.25,26,26,0,0,0-2.06-5.91,30.07,30.07,0,0,0-5.78-7.63l-1.52-1.47c-1.93-1.8-2.48-2.44-2.59-3.25a4.27,4.27,0,0,1-.1-.49c0-.38,1.16-.11,2.82,1.07a35.81,35.81,0,0,1,3.54,2.94,22,22,0,0,1,1.6,1.73l.77.9.72,1a27.66,27.66,0,0,1,4.33,8.71,27,27,0,0,1,1.05,7.25c0,1.22-.08,2.44-.16,3.65s-.32,2.4-.61,3.59Z"/><path class="cls-1" d="M453,167.67a9.42,9.42,0,0,1,2,.51l1,.42c.3.16.59.35.89.52a5.42,5.42,0,0,1,.83.59c.27.22.54.42.79.65a11,11,0,0,1,1.35,1.54,11.24,11.24,0,0,1,2.07,7.61,9.26,9.26,0,0,1-.27,1.91l-.19.94a9.43,9.43,0,0,1-.29.9c-.2.59-.4,1.18-.61,1.77l-.8,1.65a37.69,37.69,0,0,1-3.91,6.07c-.48.69-1,1.3-1.57,1.93l-1.55,1.83a.38.38,0,0,0-.06.43,3.75,3.75,0,0,0,.2.37,10.37,10.37,0,0,0,1.49,1.75c2,2,4.38,3.85,6.65,5.78s4.57,3.9,6.72,6a50.45,50.45,0,0,1,6,6.9,26.75,26.75,0,0,1,4.07,8.28,18.94,18.94,0,0,1,.44,8.27,22.52,22.52,0,0,1-2.94,7.64c-3.65,6-9.1,10.5-14.81,14.09-1.8,1.12-1.8.59-.63-.83a74.48,74.48,0,0,1,6.2-6.37,37.93,37.93,0,0,0,6.52-7.4,19.65,19.65,0,0,0,3.27-8.82,17.54,17.54,0,0,0-1.73-9.19,34.64,34.64,0,0,0-5.58-8.19,77,77,0,0,0-9.12-8.47c-1.64-1.35-3.31-2.67-5-4.08a30.13,30.13,0,0,1-2.43-2.26,11.07,11.07,0,0,1-1.14-1.36,5.42,5.42,0,0,1-.51-.86A3.6,3.6,0,0,1,450,197a2.63,2.63,0,0,1,.11-1.15,3.5,3.5,0,0,1,.6-1l2.18-2.51c.73-.81,1.31-1.72,2-2.57a30.32,30.32,0,0,0,3.2-5.53,15.25,15.25,0,0,0,1.29-6,8.18,8.18,0,0,0-2.13-5.37,7.91,7.91,0,0,0-3.11-2.16c-.29-.12-.59-.17-.88-.27l-1-.16a19.38,19.38,0,0,0-2-.15,79.47,79.47,0,0,0-8.48.54A50.37,50.37,0,0,1,435,171a14.21,14.21,0,0,1-6.66-1.7c-4-2.38-6.57-6.12-9.44-9.22a21.48,21.48,0,0,0-7.7-5.64,16.92,16.92,0,0,0-9.17-1.13,14.43,14.43,0,0,0-2,.45c-.64.2-1.27.44-1.91.7s-1.1.5-1.55.78l-1.25.75c-.7.54-1.34.89-1.79,1.29a11.61,11.61,0,0,1-1.23.83,4.22,4.22,0,0,1-1,.48,5.76,5.76,0,0,1-.87.28c-.38,0-.31-.43.21-1.35a8.91,8.91,0,0,1,.47-.77c.21-.26.45-.55.71-.85a15.25,15.25,0,0,1,2.07-1.94,18.18,18.18,0,0,1,9-3.47,19.89,19.89,0,0,1,9.78,1.7,24.67,24.67,0,0,1,8,6c2.21,2.37,4.09,4.84,6.26,6.77a16.16,16.16,0,0,0,2.51,1.91,14.14,14.14,0,0,0,1.27.66,14.3,14.3,0,0,0,1.4.42,23.85,23.85,0,0,0,6.44.32c2.26-.14,4.57-.41,6.94-.61a31.94,31.94,0,0,1,7.44,0Z"/><path class="cls-1" d="M345,172.32A23.31,23.31,0,0,1,351,161.21a14,14,0,0,1,4-2.66A16.76,16.76,0,0,1,370.66,160a24.48,24.48,0,0,1,5.34,4.63,31.12,31.12,0,0,1,4.94,7.34c.4.82,0,.91-.74.49a10.06,10.06,0,0,1-1.42-1,7.29,7.29,0,0,1-1.58-1.64,31.79,31.79,0,0,0-5.65-6.31,20.05,20.05,0,0,0-3.41-2.35,13.47,13.47,0,0,0-13.6.18c-3.19,1.84-5.27,5.38-6.57,9a31.2,31.2,0,0,0-1.61,7.06,34.92,34.92,0,0,0,.47,11,24.2,24.2,0,0,0,3.1,7.72c.33.5.62,1,1,1.48s.59.83.8,1.16.43.54.55.79a3,3,0,0,1,.38,1.16c0,.15.07.33.07.44s-.23.16-.66,0a5.63,5.63,0,0,1-1.79-1.13l-1.41-1.51c-.44-.54-.77-1.14-1.16-1.73a13.09,13.09,0,0,1-1-1.85,14.9,14.9,0,0,1-.82-1.93,31.65,31.65,0,0,1-1.82-8.23,38.84,38.84,0,0,1,.89-12.52Z"/><path class="cls-1" d="M208.78,455.55a13.22,13.22,0,0,0-1.72-.88c-.22-.1-.46-.15-.68-.23-.8-.32-1.62-.63-2.45-.91a9,9,0,0,0-1.14-.26,4.23,4.23,0,0,1-1.47-.4c-.28-.17.43-1.28,1-1.2a12.37,12.37,0,0,1,3,.79c.58.25,1.23.36,1.85.56a17.18,17.18,0,0,1,2,.86c.4.2.78.43,1.16.67a11.52,11.52,0,0,1,1.61,1.27A7.41,7.41,0,0,1,213,457a.88.88,0,0,1,.2.3.79.79,0,0,1,.07.5.85.85,0,0,1-.29.34l-.17.13a.59.59,0,0,1-.36.05.91.91,0,0,1-.43-.14c-.74-.48-1.13-1-1.77-1.52a8.58,8.58,0,0,0-1.49-1Z"/><path class="cls-1" d="M86.18,336.51c-.73-.14-1.46-.23-2.17-.44l-1.07-.28c-.35-.1-.7-.24-1-.36a10.14,10.14,0,0,1-1.51-.56,18.29,18.29,0,0,1-6.28-5.07,10.61,10.61,0,0,1-1.69-2.66c-.14-.3.06-.35.38-.22a2.7,2.7,0,0,1,1.11.89A21.61,21.61,0,0,0,78.16,332a11.81,11.81,0,0,0,1.58.95c.56.26,1.16.46,1.73.72s1.29.46,2,.64,1.33.36,2,.44c.42.06.85.14,1.27.19l1.28.1c.65.05,1.31,0,2,0s1.3-.05,1.94-.14a20.14,20.14,0,0,0,2.91-.66l.62-.2c.78-.19,1-.16,1.35.2a2.23,2.23,0,0,1,.19.24c.18.28-.07.63-.65.92a15.07,15.07,0,0,1-5.7,1.27c-.73.07-1.48,0-2.22,0s-1.49-.11-2.23-.21Z"/><path class="cls-1" d="M86.22,314.6a11.73,11.73,0,0,1,.44-3.84,10.08,10.08,0,0,1,.41-1.32,11.6,11.6,0,0,1,2.75-4,10.78,10.78,0,0,1,1.67-1.34,4.94,4.94,0,0,1,2.56-.95c.29,0,.3.28.16.64a2.27,2.27,0,0,1-.77,1,15.13,15.13,0,0,0-3.59,2.95,7.69,7.69,0,0,0-1.35,2.66,10.65,10.65,0,0,0-.58,3.26,8.08,8.08,0,0,0,.23,2,5.26,5.26,0,0,0,1.48,2.59,4.14,4.14,0,0,0,2,.95,3.71,3.71,0,0,0,.48.1,1.66,1.66,0,0,1,.62.26,1,1,0,0,1,.23.53c0,.11.06.21.07.31,0,.31-.3.63-.88.67a5.5,5.5,0,0,1-4.71-2.61,8.43,8.43,0,0,1-1.29-3.9Z"/><path class="cls-1" d="M103.17,295.37a10.49,10.49,0,0,0,3.24.94h1.24a10.41,10.41,0,0,0,4.34-1,9.06,9.06,0,0,0,1.73-1.07c.72-.5,1.3-1.17,2.06-1.65.23-.15.43.07.47.45a1.77,1.77,0,0,1-.44,1.33,10.71,10.71,0,0,1-5,3c-.59.11-1.17.29-1.77.42a10.26,10.26,0,0,1-1.83.21,12.05,12.05,0,0,1-3.92-.68,16.33,16.33,0,0,1-2.2-1,23,23,0,0,1-3-2c-.36-.3-.72-.57-1.1-.84s-.72-.58-1.07-.88a4.48,4.48,0,0,1-.45-.41c-.51-.56-.57-.83-.27-1.27.07-.1.13-.21.2-.3a.81.81,0,0,1,1.14,0c1.25.92,2.38,2,3.65,2.9a15,15,0,0,0,3,1.73Z"/><path class="cls-1" d="M376.46,349.48s5.61-1.36,5.61,0c0,1.15,1.11,17.43,1.11,17.43l2.22-5.06-.12-18.52Z"/><path class="cls-1" d="M358.58,334.63c-.71-.29-1.38-.69-2.06-1s-1.32-.77-1.93-1.25a14.68,14.68,0,0,1-1.34-1,16.18,16.18,0,0,1-3.67-4.57,17.12,17.12,0,0,1-1.11-2.33l-.52-1.57a14.74,14.74,0,0,1-.25-1.62c0-.34.19-.32.48-.09a2.67,2.67,0,0,1,.81,1.23c.17.5.4,1,.58,1.45s.48.92.68,1.39a20.28,20.28,0,0,0,1.6,2.67,9.5,9.5,0,0,0,1.27,1.43c.49.42,1,.83,1.51,1.22a18.3,18.3,0,0,0,1.78,1.18c.31.17.61.36.93.53l1,.46a10.16,10.16,0,0,0,1.22.52c.42.15.82.34,1.25.45a22.61,22.61,0,0,0,3.94.95c1,.14,2.07.14,3.1.18h.68c.85,0,1.12.18,1.31.53a2.53,2.53,0,0,1,.12.23c.08.23-.27.49-.92.6a18.14,18.14,0,0,1-3,.21,13.14,13.14,0,0,1-1.53-.12A13.54,13.54,0,0,1,363,336l-1.13-.24-1.11-.32a15.79,15.79,0,0,1-2.18-.79Z"/><path class="cls-1" d="M363.81,316.73a10.29,10.29,0,0,1-.29-4.26,9.36,9.36,0,0,1,.28-1.51,11.32,11.32,0,0,1,2.7-4.54,17,17,0,0,1,1.74-1.55,5.63,5.63,0,0,1,2.65-1.29c.31-.05.38.32.28.75a2,2,0,0,1-.73,1.21,13,13,0,0,0-3.81,3.36,7.76,7.76,0,0,0-1.23,3,8.7,8.7,0,0,0-.06,3.52,4.73,4.73,0,0,0,.28,1.06,5.28,5.28,0,0,0,.45,1,6.13,6.13,0,0,0,2.26,2.37,4.29,4.29,0,0,0,1.19.45l.61.14c.21,0,.42,0,.63.07a5,5,0,0,1,.54.06c.69,0,.9.18,1.06.64a2,2,0,0,1,.11.32c.08.35-.23.63-.84.73a4.69,4.69,0,0,1-1.4.06,5.16,5.16,0,0,1-1.44-.27,6.75,6.75,0,0,1-1.38-.61,9.7,9.7,0,0,1-1.24-.89,8.5,8.5,0,0,1-2.4-3.77Z"/><path class="cls-1" d="M380.12,290a7.17,7.17,0,0,0,1.3-.28l1.29-.35,1.24-.52a5.89,5.89,0,0,0,1.21-.59c.56-.34,1.12-.69,1.66-1.07a22.9,22.9,0,0,0,2.68-2.26,13.6,13.6,0,0,0,1.23-1.29l1.09-1.42.47-.65.39-.7.73-1.42a7.76,7.76,0,0,0,.44-.92c.12-.32.23-.64.37-.95.29-.62.6-1.24.93-1.85.2-.38.44-.25.59.19a4.27,4.27,0,0,1,0,2,19.84,19.84,0,0,1-4.44,7.58c-.32.31-.63.64-.94,1a8,8,0,0,1-1,1l-1.05.9-.52.44c-.19.14-.39.25-.58.38a16.6,16.6,0,0,1-2.65,1.45c-.46.19-.92.41-1.39.58l-1.45.41A11.17,11.17,0,0,1,380,292a11.36,11.36,0,0,1-1.84.18l-1.39,0-1.39-.12-.69-.06-.69-.13-1.36-.27c-.68-.22-1.38-.37-2.06-.59l-1-.41a4.87,4.87,0,0,1-1-.48c-.28-.16-.56-.31-.83-.49a2.34,2.34,0,0,1-.89-.92,1,1,0,0,1-.12-.68,1.06,1.06,0,0,1,.06-.28c.1-.25.64-.14,1.35.18.46.31,1,.48,1.55.75s1.12.35,1.64.58l1.7.47,1.75.31,1.32.11c.23,0,.45.05.67.05l.66,0c.45,0,.9,0,1.34,0l1.32-.21Z"/><path class="cls-1" d="M384.66,339.91c1.22-11.52,2.81-23,4.69-34.42.68-4.17,1.36-8.34,2.12-12.49,2.71-14.63,5.88-29.19,9.84-43.55,1.77-6.36,3.67-12.73,5.89-18.92a104.66,104.66,0,0,1,4.86-11.73,37,37,0,0,1,3.32-5.48,12.16,12.16,0,0,1,4.93-4.21c1.32-.5,2-.27,1.92-.23a13.9,13.9,0,0,0-1.67.68,10.57,10.57,0,0,0-3,3.2c-.52.75-1,1.63-1.55,2.55s-1.09,1.91-1.65,3c-4,7.45-6.74,15.61-9.28,23.77s-4.7,16.52-6.72,24.93c-2.42,10-4.43,20.63-6.26,31.06-2,11.46-3.75,23-5.15,34.53q-1.31,10.67-2.15,21.38c-.87,10.81-1.45,21.7-1.61,32.47-.09,8.37.1,16.57.6,24.82.1,1.82.27,3.59.39,5.42.59,6.78.75,8.93.61,10.42,0,.34-.05.79-.09,1s-.24-.17-.49-1.39a53.28,53.28,0,0,1-.88-5.63,320,320,0,0,1-1.18-46.15c.42-11.65,1.3-23.34,2.5-35Z"/><path class="cls-1" d="M154.55,459s-13.18,1-7.49,3.6,24.62-.61,26.09-.81-18-.49-18-.49Z"/><path class="cls-1" d="M186,459.91l-7.77,2.51s1.42,4.44,12.79,3,14.88-3,14.88-3-14.26.53-16.64-.82A32.89,32.89,0,0,0,186,459.91Z"/><path class="cls-1" d="M249,336l12.67-.49s2.42-17.43-1.41-20.48-17.23-5.15-17.23-5.15,6,9.77,6,18.67S249,336,249,336Z"/><path class="cls-1" d="M226.37,307.87s-48.22-.69-63.39,6.86c0,0,10.35,5.3,15,22.2l34.52-1.1S215.39,316.44,226.37,307.87Z"/><path class="cls-1" d="M196.76,436.91s-1,0-1.17-9.58c-.2-11.79,10.77-81.11,19.24-98.8,8.59-17.91,7.17-19.73,19.76-21.94,0,0,10.24.22,13.52,15.26s-2.42,47.11-4.57,56.81-15,55.49-19.69,59.87C223.85,438.53,206.07,443.9,196.76,436.91Z"/><path class="cls-1" d="M192.84,436.12c0,1.23-1.27,3.57-2.41,4-5,2.1-18.23,5.79-24.15-.56C159,431.75,138,358.72,141.62,339.34s5.9-21.13,15-24.46c0,0,10.12-3.68,17.82,13.65s14.43,67.17,16.27,79.56A234.33,234.33,0,0,1,192.84,436.12Z"/><path class="cls-1" d="M236.07,239.54s-2.83-17.16-3.42-18.52-4.78-3.31-9.23-2.55l-20.79,10.29-11.77,7s2.53,12.16,4.42,25.42c2.28,15.9,4.08,33.38,5.42,33.35,0,0,34.85-5.57,41.63-15.14l-4-15.27s-5.89-1.29-5.66-3,5.66-2.59,5.66-2.59-9.44-3-10.94-5.89,1.76-2.95,1.76-2.95-4.09-2.75-1.81-4.92a6,6,0,0,1,2.31-.73s-3.53-1.42-2.66-3.18S236.07,239.54,236.07,239.54Z"/><path class="cls-1" d="M154.62,216l32.82,19.52s2.15,2.91,3.26,10.79c0,0,7.38,47.1,6.63,47.37-2.42.88-32.45-12-35.84-18.07l-2.87-17.73s5.53,2.57,5.94.47-4.16-5.17-4.16-5.17,7.44,1.1,8.29-.83-3.94-3.69-3.94-3.69,5.25.18,4.95-1.77c0,0,.74-1.92-2.31-2.83,0,0,3.42-.59,3.34-2.17,0,0,.45-3.74-12.82-4.58l-1.86.05S153.07,216.68,154.62,216Z"/><path class="cls-1" d="M199,202a22.1,22.1,0,0,1-2-2.51c-.2-.33-.45-.63-.65-1a15.25,15.25,0,0,1-1.47-3.81c-.13-.59-.27-1.18-.34-1.77,0-.39-.1-.77-.11-1.15a6.24,6.24,0,0,1,.15-1.15c.05-.23.32-.17.59.05a1.42,1.42,0,0,1,.59.94,25.23,25.23,0,0,0,.9,4,4.31,4.31,0,0,0,.55,1.17,13.1,13.1,0,0,0,.73,1.1,16.42,16.42,0,0,0,1.85,2.24,15.26,15.26,0,0,0,1.32,1.22,11.87,11.87,0,0,0,2.26,1.54,5.05,5.05,0,0,0,1,.37c.32.12.66.2,1,.29.15,0,.29.07.43.12.53.13.67.3.7.76,0,.1,0,.21,0,.31,0,.34-.3.55-.79.56a7.54,7.54,0,0,1-2.17-.3,11,11,0,0,1-2-1,14.08,14.08,0,0,1-1.34-1l-.63-.52-.59-.57Z"/><path class="cls-1" d="M245.76,202.83c-.66.4-1.37.65-2,1s-1.4.52-2.1.76c-.52.15-1,.35-1.55.49-.91.24-1.85.39-2.77.58s-1.86.24-2.78.34-1.65.18-2.46.3c-.52.06-1,.13-1.56.15s-1.06,0-1.59-.08c-.33,0-.3-.21,0-.46a3.94,3.94,0,0,1,1.3-.82c2.07-.41,4.12-.75,6.2-1a10.25,10.25,0,0,0,1.88-.37l.93-.25.91-.3,1-.3,1-.37a18.28,18.28,0,0,0,1.92-.84,12.23,12.23,0,0,0,1.12-.62,7.51,7.51,0,0,0,1.07-.69,13.6,13.6,0,0,0,2.82-2.64,17.06,17.06,0,0,0,1.56-2.55c.11-.2.2-.39.32-.58.43-.72.76-.84,1.14-.84h.26c.25.05.3.47.17,1.12-.14.45-.29.91-.46,1.37a13.8,13.8,0,0,1-.67,1.33,11.68,11.68,0,0,1-.82,1.29,8.32,8.32,0,0,1-1,1.22,16.1,16.1,0,0,1-3.71,2.82Z"/><path class="cls-1" d="M230.23,114.56s.77,12.2,2.42,11.11,3.86-8.51,7-9.49,9.52.06,10.75,5.4l.37,2.33c.07.38,7.74-3.28,8.19-3.57,6.15-4,8.63-10.06,6.91-17.15-1.36-5.58-4.85-10.83-11.28-10.06.43,0,1.08-7.64-2.6-13.73-4.58-7.58-15.7-12.42-29.53-6.49,0,0-6.56,18-.18,28.61S230.23,114.56,230.23,114.56Z"/><path class="cls-1" d="M217.33,77.36c0-4.8-7.77-13.89-15.77-14s-5.86,9.09-4.86,11.41c-1.06-2.47-15-10.66-26.84-6.66-13,4.39-12.13,22-.86,26.62-12.9,2.88-10.07,14.56-1.38,16.67a38.54,38.54,0,0,0,17.87-.07S214.5,99.54,217.33,77.36Z"/><path class="cls-1" d="M195,165.28a57.44,57.44,0,0,1-9.52-10,47,47,0,0,1-2.83-4.17,48.61,48.61,0,0,1-3.76-8,54,54,0,0,1-2.22-8.55c-.22-1.29-.37-2.59-.56-3.88s-.26-2.59-.32-3.88a48.86,48.86,0,0,1-.05-5,34,34,0,0,1,.49-5c.17-1,.63-.82,1,.09a7.62,7.62,0,0,1,.5,1.83,17.47,17.47,0,0,1,.17,2.53l0,2.45.07,2.46c0,.81.06,1.63.13,2.44s.08,1.64.21,2.45a56.32,56.32,0,0,0,1.91,9.64,41.36,41.36,0,0,0,5.22,10.87,52.83,52.83,0,0,0,8.73,10.1,64.74,64.74,0,0,0,6.5,5.15c1.73,1.18,3.5,2.31,5.31,3.42.9.55,1.81,1.09,2.72,1.68a14.07,14.07,0,0,1,1.37,1,4.55,4.55,0,0,1,.35.4,3,3,0,0,1,.25.36c.14.24.29.47.42.71a78,78,0,0,1,4.16,8.91c.27.67.53,1.32.77,2,.87,2.55.85,3.46.39,4.18a3,3,0,0,1-.32.47c-.37.36-1.09-.56-1.82-2.34-1.09-2.64-2.16-5.37-3.32-8.07-.58-1.35-1.19-2.69-1.87-3.93-.17-.32-.35-.6-.52-.9l0,0v0h0l.47-.31h0l-.32.2-.14.09h0s0,0,0-.05l-.31-.26c-.53-.38-1.14-.78-1.79-1.18A101.59,101.59,0,0,1,195,165.32Z"/><path class="cls-1" d="M228.46,114.41c-1.13-1.55-2.45-3.25-3.55-5a45,45,0,0,1-3.06-5.47,37.82,37.82,0,0,1-3.39-12.06,37.26,37.26,0,0,1,.13-9.14A43.33,43.33,0,0,1,220.54,75l.7-1.87c.24-.62.53-1.22.79-1.83.14-.31.26-.6.41-.92a5,5,0,0,1,.73-1l.42-.43.46-.35a6.28,6.28,0,0,1,.93-.59,18.32,18.32,0,0,1,8-1.8,27.9,27.9,0,0,1,8,1,20.48,20.48,0,0,1,11.63,8,19.77,19.77,0,0,1,3.16,8.58,25.22,25.22,0,0,1-.5,9c-.43,1.82-.7,1.49-.89-.11,0-.4-.1-.87-.14-1.41s-.12-1.15-.16-1.8S254,88,253.9,87.27l-.06-1.14c-.05-.38-.1-.77-.13-1.17A18.8,18.8,0,0,0,251.2,77a16.76,16.76,0,0,0-5.9-5.72,22.44,22.44,0,0,0-8-2.75,23.44,23.44,0,0,0-8.56.22,12.42,12.42,0,0,0-2.37.78,5.41,5.41,0,0,0-1.81,1.32l-.24.38-.27.62-.54,1.25c-.36.84-.63,1.7-.95,2.56a39.27,39.27,0,0,0-2,10.65A34.31,34.31,0,0,0,222,98.05a40.37,40.37,0,0,0,5.25,10.71c.69,1,1.42,2,2.17,3,.38.51.75,1,1.16,1.58a2.34,2.34,0,0,1,.45,1.29,5.8,5.8,0,0,1-.12.65l-.08.44a14.37,14.37,0,0,0,.4,7.05,11,11,0,0,0,.49,1.24,1.37,1.37,0,0,0,.49.71.71.71,0,0,0,.72,0,1.14,1.14,0,0,0,.34-.23,2.86,2.86,0,0,0,.36-.41,3.28,3.28,0,0,0,.5-1.05,2.9,2.9,0,0,0,.12-.57,3,3,0,0,1,.13-.52l.14-.37A17.13,17.13,0,0,1,236,119a10.58,10.58,0,0,1,4.48-4.06,5.84,5.84,0,0,1,3.17-.35,6.5,6.5,0,0,1,.79.15l.73.29a6.34,6.34,0,0,1,1.37.71,11.89,11.89,0,0,1,3.4,3.19,9.46,9.46,0,0,1,1.66,4.42,12.55,12.55,0,0,1-2.84,8.74,15.27,15.27,0,0,1-2.9,2.89,11.8,11.8,0,0,1-2.88,1.6,6.94,6.94,0,0,1-2.29.43,3.19,3.19,0,0,1-2.44-.84,3.34,3.34,0,0,1-.49-.65c-.14-.7,1.57.25,4.37-1.11a13,13,0,0,0,5.23-4.65,9.58,9.58,0,0,0,1.74-6.53,7.93,7.93,0,0,0-3.73-5.38,4.06,4.06,0,0,0-5.49.29,12.82,12.82,0,0,0-3.05,4.36l-.1.27c0,.09,0,0,0,0l-.26-.06-.4-.08c-.27,0-.54-.06-.81-.08-1.41-.12,1.79.16,1.47.14h0v.1a6.18,6.18,0,0,1-.21,1,5.87,5.87,0,0,1-1,1.9,5.5,5.5,0,0,1-.83.85,3.79,3.79,0,0,1-1.33.67,2.93,2.93,0,0,1-2.76-.64,5.35,5.35,0,0,1-.51-.55c-.13-.19-.25-.39-.37-.59a1.73,1.73,0,0,1-.12-.25l-.09-.19-.17-.4a15.55,15.55,0,0,1-1.13-5,17.93,17.93,0,0,1,.12-3.36c0-.28.07-.55.12-.82l.13-.65c0-.06,0,0,0-.06s0,0-.17-.25Z"/><path class="cls-1" d="M265,112a19.85,19.85,0,0,0,1.88-6.63c0-.42,0-.84,0-1.26a8.8,8.8,0,0,0,0-1.26,14.68,14.68,0,0,0-3.06-8.35A10.39,10.39,0,0,0,260.65,92a6.64,6.64,0,0,0-4.86-.68c-.5.13-.58-.11-.22-.54a3.21,3.21,0,0,1,2.5-1A10,10,0,0,1,263.68,92a13,13,0,0,1,3.69,4.68c.24.55.49,1.1.74,1.65l.55,1.74a18.54,18.54,0,0,1,.64,3.6,18.75,18.75,0,0,1-1.3,7.79l-.43,1.13c-.17.37-.36.72-.54,1.08l-.55,1.08c-.19.35-.42.68-.63,1a23.56,23.56,0,0,1-4.77,5.47,21.49,21.49,0,0,1-2.17,1.77l-1.14.84c-.41.24-.82.46-1.24.69s-.72.42-1.11.6c-1.49.5-2,.43-2.51-.18a3.81,3.81,0,0,1-.32-.41c-.25-.5.2-1.13,1.09-1.6a28.3,28.3,0,0,0,7.31-5.31A21.4,21.4,0,0,0,264.9,112Z"/><path class="cls-1" d="M174.56,112.16a41.38,41.38,0,0,0,7.21-1.11,47,47,0,0,0,7-2.36,49.25,49.25,0,0,0,4.8-2.45,51.68,51.68,0,0,0,7.84-5.39A52.51,52.51,0,0,0,208.06,94c.84-1.14,1.75-2.25,2.48-3.47.38-.6.76-1.2,1.13-1.8l1-1.87a103.14,103.14,0,0,0,4.23-10c.47-1,.69-.84.81.2a10.86,10.86,0,0,1-.55,5,44.23,44.23,0,0,1-12.75,19.09,59.13,59.13,0,0,1-11.54,8.18,47.58,47.58,0,0,1-14.77,4.85,34.37,34.37,0,0,1-9.61.14,20.24,20.24,0,0,1-7-2.24,12.18,12.18,0,0,1-5.19-5.32,13.2,13.2,0,0,1-.53-1.36,6.59,6.59,0,0,1-.38-1.47,8.83,8.83,0,0,1,.28-3,12.43,12.43,0,0,1,2.86-5,12,12,0,0,1,1.89-1.73,7.92,7.92,0,0,1,3.1-1.47,3.15,3.15,0,0,1,.94,0,1.85,1.85,0,0,1,.66.25,2.34,2.34,0,0,1,.48.3c.33.42-.8.85-2.5,1.8A11.48,11.48,0,0,0,159.79,98a10.12,10.12,0,0,0-1.92,3.87,5.42,5.42,0,0,0-.13,1.94c0,.14.06.28.09.43a4,4,0,0,0,.16.49c.14.33.23.68.38,1a9.45,9.45,0,0,0,2.72,3.32,15.29,15.29,0,0,0,6.27,2.66,26.51,26.51,0,0,0,7.19.43Z"/><path class="cls-1" d="M158,72.31a18.09,18.09,0,0,1,8.9-8.12,20.53,20.53,0,0,1,4.14-1.44,22.34,22.34,0,0,1,3.81-.5c.64,0,1.26,0,1.89,0s1.25,0,1.88.08A26,26,0,0,1,186,63.93a21.12,21.12,0,0,1,5.82,3.32,16.36,16.36,0,0,1,5,6.79c.32.82,0,.83-.67.38-.35-.23-.75-.58-1.25-1a8.61,8.61,0,0,1-.76-.64l-.74-.79a22.06,22.06,0,0,0-13.51-7.12,22.87,22.87,0,0,0-4.91-.2,21.16,21.16,0,0,0-4.81.9,17,17,0,0,0-8.76,5.86,13.92,13.92,0,0,0-2.57,6,15,15,0,0,0-.06,5,13.07,13.07,0,0,0,1.8,4.66,15.22,15.22,0,0,0,5.63,5.15c.47.3,1,.48,1.5.75s.88.4,1.2.57.57.37.79.51a2.84,2.84,0,0,1,.95,1.34c.05.23-.17.34-.61.37a5.64,5.64,0,0,1-2-.21,18.47,18.47,0,0,1-6.82-4,16.66,16.66,0,0,1-4.46-7.05,16.06,16.06,0,0,1-.58-6.27,17.11,17.11,0,0,1,1.7-6Z"/><path class="cls-1" d="M200.16,57A15.82,15.82,0,0,1,207,58.14c.4.13.76.33,1.15.48a7.64,7.64,0,0,1,1.11.55,22,22,0,0,1,6.26,5.77,32.77,32.77,0,0,1,2.07,3.1c.22.33.39.69.58,1a6.22,6.22,0,0,1,.52,1.07c.13.38.26.75.37,1.13l.26,1.17c.09.48-.21.5-.66.23A6.33,6.33,0,0,1,217,71.21c-.43-.62-.79-1.26-1.19-1.88s-.83-1.22-1.3-1.79l-1.33-1.76c-.48-.56-.93-1.16-1.44-1.7A14.83,14.83,0,0,0,207.34,61a13.89,13.89,0,0,0-5.67-1.56,9.33,9.33,0,0,0-3.57.42,6.42,6.42,0,0,0-3.95,3.37,8.87,8.87,0,0,0-.62,4.08c0,.31,0,.61.08.92.15,1.14-.16,1.56-.59,1.91a2.6,2.6,0,0,1-.28.23c-.16.09-.33,0-.54-.17a2.5,2.5,0,0,1-.68-1,10.72,10.72,0,0,1-.29-4.58A9.2,9.2,0,0,1,193.4,60a8.51,8.51,0,0,1,3.15-2.24,11.07,11.07,0,0,1,3.6-.86Z"/><path class="cls-1" d="M251.6,191a14,14,0,0,0,1.54-5.46,7.08,7.08,0,0,0-1.85-4.89,8.89,8.89,0,0,0-3.39-2.22,12.91,12.91,0,0,0-7.42-.6,11,11,0,0,0-1.8.55,5.43,5.43,0,0,0-.85.39l-.36.2c-.08,0-.11.08-.15.14L235,182.48a30.06,30.06,0,0,1-4.89,5.57,20.65,20.65,0,0,1-3.92,2.72,22.32,22.32,0,0,1-4.41,1.7c-.94.27-.9-.06-.26-.66a24.49,24.49,0,0,1,3.3-2.42,31.59,31.59,0,0,0,3.68-2.54,22.43,22.43,0,0,0,3.12-3.19c1-1.17,1.83-2.44,2.72-3.74l1.38-2,.31-.44.45-.25.6-.33a10.83,10.83,0,0,1,1.22-.51,15.94,15.94,0,0,1,6.13-.9,13.48,13.48,0,0,1,6.07,1.64,10,10,0,0,1,4.53,5.3l.3.83.16.92a7.2,7.2,0,0,1,.07,1.79,13.5,13.5,0,0,1-.65,3.37,20.72,20.72,0,0,1-4,7.13,25.06,25.06,0,0,1-10,7,32.77,32.77,0,0,1-9.09,2.22c-.69.05-1.36.13-2.06.17-2.57-.07-3.37-.35-3.86-1a3.28,3.28,0,0,1-.33-.37c-.1-.19.11-.35.57-.56a5.91,5.91,0,0,1,2.06-.39,35.44,35.44,0,0,0,4-.44l1-.1c.33-.05.65-.14,1-.2l2-.4a26.8,26.8,0,0,0,7.43-2.94,21.2,21.2,0,0,0,2.46-1.66,10.34,10.34,0,0,0,1.13-1c.35-.34.75-.64,1.08-1a20.7,20.7,0,0,0,3.41-4.81Z"/><path class="cls-1" d="M195.2,194.49a17.1,17.1,0,0,1-1.11-6.56l.06-1.22c0-.41.1-.81.17-1.21a10.37,10.37,0,0,1,4.87-6.94,10,10,0,0,1,3.65-1.17c.4,0,.81-.06,1.21-.07s.81,0,1.21.1.78.19,1.16.3a8.23,8.23,0,0,1,1.09.49c.44.23.2.6-.31.91a3.8,3.8,0,0,1-2,.54,8.94,8.94,0,0,0-3.77.29,7.48,7.48,0,0,0-3.12,2.1,8.48,8.48,0,0,0-1.81,4.62,13.8,13.8,0,0,0,.47,5.7,15.69,15.69,0,0,0,1.45,3.31,15.49,15.49,0,0,0,3.55,4.19,19.7,19.7,0,0,0,3.63,2.17c.28.14.56.27.83.42,1,.55,1.26.93,1.33,1.43a2.33,2.33,0,0,1,.05.34c0,.33-.57.42-1.53.29a13.14,13.14,0,0,1-4-1.52,17.92,17.92,0,0,1-3.45-2.84,18.44,18.44,0,0,1-3.66-5.65Z"/><path class="cls-1" d="M288.6,284.85a71.52,71.52,0,0,0-.25-11.78,70.18,70.18,0,0,0-2.11-11.62c-.76-2.79-1.68-5.53-2.65-8.26a200.86,200.86,0,0,0-12.93-27.92c-2.17-4-4.49-8-6.74-12-1.43-2.55-2.91-5.09-4.21-7.75-.64-1.33-1.23-2.68-1.77-4.07-.24-.71-.52-1.4-.71-2.13a18.7,18.7,0,0,1-.44-2.23c-.14-1.92.16-1.61.81-.21s2.28,3.71,3.82,6.63c2.71,5.2,5.66,10.38,8.57,15.6s5.75,10.52,8.34,16A180.24,180.24,0,0,1,287,255.57,85,85,0,0,1,290,267.46a82.32,82.32,0,0,1,1.17,12.22,40.25,40.25,0,0,1-2.09,15,20.13,20.13,0,0,1-2.92,5.11l-1,1.12-1.12,1c-.18.17-.37.34-.56.49l-.62.42c-.41.27-.82.56-1.24.81a16,16,0,0,1-11.46,1.6c-.72-.22-1.48-.35-2.18-.64l-2.08-.9L264,302.56a5.31,5.31,0,0,1-.91-.64l-.88-.69-.88-.7c-.29-.23-.53-.52-.8-.78l-1.57-1.58c-.47-.57-.91-1.16-1.37-1.75a14.52,14.52,0,0,1-1.31-1.8c-.34-.55-.69-1.09-1-1.64a11.64,11.64,0,0,1-.95-1.69c-.53-1.09-1-2-1.29-2.78a12.49,12.49,0,0,1-.63-2,8.69,8.69,0,0,1-.21-1.37,5.58,5.58,0,0,1,.08-1c.05-.26.05-.59.1-.75.08-.5,1.45,1.07,2.82,4.15,2.24,4.48,5.09,8.83,9,11.92a14.7,14.7,0,0,0,13.58,3.12,13.08,13.08,0,0,0,4.68-2.53,13.33,13.33,0,0,0,3.38-4.2,22.14,22.14,0,0,0,2-5.27,37.74,37.74,0,0,0,.82-5.75Z"/><path class="cls-1" d="M247.28,242.28a15.53,15.53,0,0,1,1.83,3.17c.49,1.05.91,2.1,1.31,3.16.81,2.1,1.54,4.21,2.26,6.31l1.64,4.57a64.4,64.4,0,0,0,3.08,7.81,8.64,8.64,0,0,0,.5.85,4.46,4.46,0,0,0,.76.91l.15.16v1a2.32,2.32,0,0,1,0,.31,10.44,10.44,0,0,1-.14,1.14,19.43,19.43,0,0,1-1.29,4.28,17.73,17.73,0,0,1-1.91,3.49,8,8,0,0,1-1.39,1.53,3.93,3.93,0,0,1-2.07,1,2.4,2.4,0,0,1-1.58-.64,7.65,7.65,0,0,1-.94-1c-.55-.66-1-1.33-1.47-2-1-1.29-1.69-2.77-2.84-3.67-.35-.25-.52-.34-.49-.45s.3-.18.78-.07a7.67,7.67,0,0,1,3.64,2.68c.52.66,1,1.31,1.51,1.9a9.65,9.65,0,0,0,.75.79c.13.12.25.21.35.29l.15.09h0s-.11.06.19-.1a1.75,1.75,0,0,0,.35-.23,2,2,0,0,0,.35-.31,10.21,10.21,0,0,0,1.3-1.64,18,18,0,0,0,2-4.13,15.89,15.89,0,0,0,.58-2.23,10.8,10.8,0,0,0,.16-1.1c0-.14.07-.2-.05-.32a15.79,15.79,0,0,1-1.64-2.83c-.45-.95-.85-1.91-1.24-2.86-.78-1.92-1.51-3.85-2.18-5.77-1.49-4.21-2.83-8.51-4.68-12.47a17.59,17.59,0,0,0-.93-1.72,3.81,3.81,0,0,0-1.07-1.2,9.18,9.18,0,0,0-1.8-.47c-.66-.14-1.33-.24-2-.34-2-.28-4-.5-6-.65-1-.07-2-.13-3-.15h-.74c-.22,0-.56,0-.66,0a6,6,0,0,0-.85.08l-.19.06a.43.43,0,0,0-.3.52,1.14,1.14,0,0,0,.47.48,4.51,4.51,0,0,0,.57.31l.41.18.53.22a34,34,0,0,0,4.45,1.34c.67.16,1.33.28,2,.42a18.74,18.74,0,0,1,2.61.58,3.9,3.9,0,0,1,.68.26c.18.11.33.23.47.33a3.58,3.58,0,0,0,.4.23c.16.1,0,.31-.55.54a5.55,5.55,0,0,1-2.34.25,33.21,33.21,0,0,1-6.78-1.44c-.56-.19-1.13-.39-1.69-.62-.28-.11-.57-.23-.85-.36l-.66-.35a4.89,4.89,0,0,1-.69-.42,3.06,3.06,0,0,1-.62-.47,2.62,2.62,0,0,1-.5-.5,2.47,2.47,0,0,1-.48-1.08,2.57,2.57,0,0,1,0-.62,2.75,2.75,0,0,1,.21-.61,3,3,0,0,1,.8-.86c.24-.1.46-.22.72-.31l.9-.16a6.69,6.69,0,0,1,.93-.15l.73,0c.71,0,1.41,0,2.11,0,2.29.09,4.55.29,6.81.57,1.14.14,2.27.31,3.42.52.59.12,1.15.23,1.81.43a3.55,3.55,0,0,1,.54.19,3.49,3.49,0,0,1,.67.4c.16.13.33.28.47.42l.36.41Z"/><path class="cls-1" d="M262.15,267.33a16.91,16.91,0,0,1,2.36-.06,8.33,8.33,0,0,1,.86,0,13.29,13.29,0,0,1,2.92.8c.42.14.83.31,1.24.46s.52.24.77.38a2.88,2.88,0,0,1,.63.58c.11.14-.1.38-.41.58a1.38,1.38,0,0,1-.95.31c-.91-.25-1.74-.54-2.68-.88a4.66,4.66,0,0,0-1.79-.11c-.67,0-1.36,0-2.05.07a10.92,10.92,0,0,0-1.26.18,9.45,9.45,0,0,0-1.89.52c-.47.18-.84.56-1.29.77a2.49,2.49,0,0,1-.28.15c-.38.16-.56.07-.87-.32-.07-.09-.15-.17-.21-.26a.83.83,0,0,1,0-1,4.49,4.49,0,0,1,2.57-1.78,14,14,0,0,1,2.31-.5Z"/><path class="cls-1" d="M263.61,260.21a6.4,6.4,0,0,1,1.58.06,3.43,3.43,0,0,1,.56,0,13,13,0,0,1,1.86.59c.25.1.53.16.78.26a2.4,2.4,0,0,1,.95.46c.08.08,0,.29-.19.48s-.42.4-.61.38a5,5,0,0,1-1.88-.49,3,3,0,0,0-1.16-.14,9.11,9.11,0,0,0-1.28,0,5.29,5.29,0,0,0-.8.08,4.45,4.45,0,0,0-1.18.35,4,4,0,0,0-.78.57c-.06,0-.1.1-.16.14-.22.14-.34.09-.61-.23l-.18-.22a.65.65,0,0,1-.09-.73,3.25,3.25,0,0,1,1.64-1.25,7.92,7.92,0,0,1,1.54-.4Z"/><path class="cls-1" d="M227.37,246.58a2.43,2.43,0,0,0,1.08,1.23,10.36,10.36,0,0,0,1.88,1c.49.2,1,.32,1.52.49a46.4,46.4,0,0,0,5.57,1.62,17.19,17.19,0,0,0,2.56.38,14.87,14.87,0,0,1,1.63.11c.54.08,1.08.17,1.59.2.29,0,.37.21.13.57a3,3,0,0,1-1.52,1,5,5,0,0,1-.92.17c-.3,0-.61,0-.9,0-.6,0-1.2-.07-1.79-.14a15.52,15.52,0,0,1-3.47-.83,38.87,38.87,0,0,1-4.15-1.39,11,11,0,0,1-4.11-2.86,2.74,2.74,0,0,1-.62-1.65,2.4,2.4,0,0,1,.16-.95,1.87,1.87,0,0,1,.68-.76,4.85,4.85,0,0,1,2.39-.54,20.94,20.94,0,0,1,2.25.1c1.14.1,2.28.11,3.41.28.25,0,.5.07.75.13a1.82,1.82,0,0,1,.92.46,1.16,1.16,0,0,1,.23.74,1.37,1.37,0,0,1,0,.36.84.84,0,0,1-.37.43,1.4,1.4,0,0,1-.8.22,52.86,52.86,0,0,1-5.78-.8,6.66,6.66,0,0,0-1.88,0c-.25,0-.33.1-.36.08h0a.7.7,0,0,1,0,.14.66.66,0,0,0,0,.27Z"/><path class="cls-1" d="M228.38,251.38a1.85,1.85,0,0,0,.84,1.31,9.15,9.15,0,0,0,1.86,1.11c.5.23,1,.4,1.56.59a42.89,42.89,0,0,0,5.74,1.9,17.35,17.35,0,0,0,2.65.48c.57.08,1.14,0,1.7.17s1.12.2,1.65.24c.3,0,.39.21.12.56a3,3,0,0,1-1.61,1,4.73,4.73,0,0,1-1,.14l-.94,0c-.62-.05-1.24-.12-1.85-.21a16.63,16.63,0,0,1-3.59-1,36,36,0,0,1-4.28-1.62,15.24,15.24,0,0,1-2.21-1.33,6.29,6.29,0,0,1-1.86-2,2.48,2.48,0,0,1-.21-1.91,1.39,1.39,0,0,1,.67-.85,2.6,2.6,0,0,1,.89-.32,8.27,8.27,0,0,1,2.44,0c.77.1,1.53.26,2.28.42,1.16.25,2.34.38,3.49.67.25.06.5.11.75.19a2.06,2.06,0,0,1,.91.54,1.24,1.24,0,0,1,.19.75,2.17,2.17,0,0,1,0,.37.63.63,0,0,1-.4.4,1.47,1.47,0,0,1-.87.15,39.41,39.41,0,0,1-6-1.5,11.71,11.71,0,0,0-2.12-.4,2.74,2.74,0,0,0-.71,0s0-.06-.05.12Z"/><path class="cls-1" d="M235.54,260.93l-.36.08s0,0-.05,0a.45.45,0,0,0-.16,0c-.06,0-.14,0-.16.1a.33.33,0,0,0,.05.16.82.82,0,0,0,.26.16A11.74,11.74,0,0,0,239,262.8a13.33,13.33,0,0,0,1.89.21l2.43.07c.25,0,.24.13,0,.29a2.37,2.37,0,0,1-1.08.47,14.73,14.73,0,0,1-5.17,0l-1.59-.33c-.27-.05-.54-.15-.82-.23a2.59,2.59,0,0,1-.43-.16,4.75,4.75,0,0,1-.6-.28,2.57,2.57,0,0,1-1.34-2c.13-.8.93-1.21,1.81-1.45.62-.16.87-.21,1.24-.29l1.05-.2c1.06-.19,2.11-.33,3.13-.57a16.18,16.18,0,0,0,2.26-.75,3.61,3.61,0,0,1,.46-.17,1,1,0,0,1,1.07.16l.21.13c.23.13.11.58-.33,1a6.36,6.36,0,0,1-2.16,1.05,23,23,0,0,1-2.25.55c-1.11.24-2.23.41-3.26.67Z"/><path class="cls-1" d="M184,205.47l1.61-2.3c.2-.28.35-.59.56-.86a31.6,31.6,0,0,1,2.35-2.88,9.78,9.78,0,0,1,1.37-1.11,2.93,2.93,0,0,1,2.29-.62c.15,0,.3.21.2.34a2.88,2.88,0,0,0-.27.5c-.15.38-.29.8-.53.91a5,5,0,0,0-1.32.84c-.41.36-.83.76-1.32,1.26a13.7,13.7,0,0,0-1.46,2l-1.58,2.31-1,1.44c-.47.73-1,1.46-1.37,2.22a17.71,17.71,0,0,0-.81,1.84c-.06.14-.1.28-.17.41-.25.49-.45.59-.94.43l-.33-.11a.73.73,0,0,1-.4-.91,13.68,13.68,0,0,1,1.54-3.38c.47-.81,1-1.6,1.5-2.39Z"/><path class="cls-1" d="M235.69,227.6l.34,3.3c.05.4.15.79.18,1.19.14,1.41.25,2.83.41,4.24.07.62.19,1.24.32,1.85a8,8,0,0,1,.3,2.39c0,.25-.38.28-.78.13a1.63,1.63,0,0,1-1-.91,21.75,21.75,0,0,1-.7-4.84,25.86,25.86,0,0,0-.45-3l-.45-3.28-.26-2c-.15-1-.27-2-.48-3-.16-.78-.43-1.52-.65-2.27-.05-.17-.12-.33-.16-.5-.15-.63-.05-.86.45-1.11.12,0,.23-.12.35-.16a.75.75,0,0,1,1,.48,17,17,0,0,1,1.16,4.24c.2,1.09.34,2.2.5,3.3Z"/><path class="cls-1" d="M237,284.73a85.59,85.59,0,0,1-8.65,4.13c-1.08.43-2.12.94-3.22,1.32a92.74,92.74,0,0,1-11.76,3.48l-2.66.57c-.88.2-1.78.34-2.67.51a29.83,29.83,0,0,1-6.93.58c-1.44-.05.37-1.46,2.9-1.8a111.67,111.67,0,0,0,13.58-2.7,65.12,65.12,0,0,0,8.07-2.84c2.91-1.19,5.78-2.5,8.56-4a51.65,51.65,0,0,0,5-2.94c.49-.32.95-.68,1.43-1,.24-.17.45-.36.67-.55l.39-.32q-.64-2.39-1.28-4.74c-.63-2.19-1.26-4.35-1.89-6.53-.13-.49-.28-1-.39-1.44-.44-1.83-.4-2.46,0-2.94a3.37,3.37,0,0,1,.32-.33c.38-.24.83.44,1.23,1.73,1.17,3.83,2.28,7.92,3.4,12l.81,2.89L242.53,281a8.6,8.6,0,0,1-.76.62c-.52.38-1,.79-1.57,1.13l-1.6,1-1.62,1Z"/><path class="cls-1" d="M204.46,226.18l6.09-2.76c.74-.34,1.45-.73,2.19-1.06l7.9-3.39c1.18-.5,2.34-1,3.48-1.56a22.54,22.54,0,0,1,4.58-1.74c.51-.12.53.18.25.64a5.06,5.06,0,0,1-1.64,1.57c-1.41.84-2.91,1.51-4.39,2.23s-3,1.36-4.56,2c-1.86.72-3.67,1.73-5.5,2.6l-6.06,2.9c-1.23.6-2.48,1.19-3.7,1.82-1.86.94-3.74,1.85-5.54,2.88-1.4.79-2.68,1.71-4,2.6-.29.2-.55.41-.85.58a4.58,4.58,0,0,1-1.24.57,1.3,1.3,0,0,1-.84-.15,2.56,2.56,0,0,1-.37-.2c-.34-.24-.14-.88.59-1.61a21.79,21.79,0,0,1,3.58-2.67q1.92-1.18,3.93-2.25c2-1.08,4-2,6.05-3Z"/><path class="cls-1" d="M174,228.85l-5.14-3.35c-.63-.41-1.28-.77-1.9-1.19l-6.52-4.44c-1-.67-1.94-1.32-2.9-2a18.81,18.81,0,0,1-3.61-2.76c-.33-.36,0-.51.47-.49a4,4,0,0,1,1.93.6c2.54,1.58,5.15,3.1,7.6,4.93,1.48,1.06,3.15,2,4.74,2.95l5.23,3.24,3.23,2c1.64,1,3.28,2,4.95,2.89,1.29.7,2.64,1.26,3.95,1.89.29.13.58.25.87.4,1.06.55,1.32.85,1.31,1.45a2.64,2.64,0,0,1,0,.4c-.08.42-.68.5-1.53.21a39.88,39.88,0,0,1-7.38-3.53c-1.79-1-3.55-2.11-5.31-3.18Z"/><path class="cls-1" d="M175.59,285.83c-2.66-1.45-5.29-2.93-7.92-4.44-.95-.56-1.94-1.05-2.89-1.63s-1.66-1-2.49-1.55c-.41-.27-.83-.56-1.24-.85-.09-.06-.21-.16-.32-.25l-.45-.36-.22-.19a1.29,1.29,0,0,1-.08-.28c0-.19-.09-.38-.12-.58-.28-2.05-.45-3.91-.67-5.86-.18-1.71-.41-3.42-.64-5.11-.31-2.17-.61-4.35-.71-6.55,0-.68.29-.63.68-.1a7.14,7.14,0,0,1,1.13,2.78c.82,4.4,1.4,8.84,1.92,13.29,0,.32.09.66.14,1a.69.69,0,0,1,0,.15v.07c0,.07,0,.09.08.13a4.64,4.64,0,0,0,.68.46c.29.18.56.36.85.53,1.17.7,2.38,1.37,3.57,2,2.62,1.5,5.28,3,8,4.39,1.64.88,3.29,1.75,4.95,2.59,2.52,1.26,5.06,2.54,7.62,3.65,2,.89,4,1.57,6,2.27l1.33.44a13.72,13.72,0,0,1,1.69.72,1.41,1.41,0,0,1,.65.73,1.92,1.92,0,0,1,.16.41c.08.42-.7.55-2.06.35a34.51,34.51,0,0,1-5.8-1.68c-1.92-.7-3.82-1.49-5.67-2.38-2.77-1.29-5.48-2.72-8.19-4.13Z"/><path class="cls-1" d="M184.32,299.94a20.66,20.66,0,0,0,.93-2.16c.09-.27.11-.56.21-.84a22.66,22.66,0,0,0,.9-3,7.19,7.19,0,0,0,.13-1.39,3.94,3.94,0,0,1,.14-1.77c.17-.37,2.3.17,2.31.9a10.08,10.08,0,0,1-.68,3.8c-.3.73-.32,1.54-.57,2.31a24.17,24.17,0,0,1-.93,2.45c-.23.49-.46,1-.7,1.44-.36.73-.8,1.4-1.17,2.11-.29.54-.46,1.14-.74,1.68-.06.12-.11.25-.18.36-.28.42-.49.47-1,.29l-.31-.13a.79.79,0,0,1-.43-.88,12.75,12.75,0,0,1,1-3.07c.3-.73.65-1.43,1-2.15Z"/><path class="cls-1" d="M260.07,306.6c.08-.6.13-1.21.17-1.83,0-.22,0-.44,0-.67.09-.8.18-1.61.24-2.42a6.5,6.5,0,0,0,0-1.08,2.5,2.5,0,0,1,0-1.38c.12-.29,1.88.1,1.93.58a8.91,8.91,0,0,1-.07,2.72,8.08,8.08,0,0,0,.05,1.7c0,.63,0,1.27-.06,1.91,0,.4-.05.79-.08,1.19,0,.59-.12,1.19-.13,1.8,0,.46,0,.93,0,1.41a1.7,1.7,0,0,1-.06.31c-.13.37-.34.45-.75.43H261a1,1,0,0,1-.67-.54l-.27-.61c-.06-.2-.09-.39-.13-.58a3.77,3.77,0,0,1-.05-1.16c0-.58.1-1.17.12-1.77Z"/><path class="cls-1" d="M246.5,350.38c.8-7.94,1.47-15.88.69-23.68a50.72,50.72,0,0,0-.9-5.78L246,319.5l-.38-1.4a13.86,13.86,0,0,0-.43-1.33,9.88,9.88,0,0,0-.55-1.25,14.29,14.29,0,0,0-8-7.13,9.81,9.81,0,0,0-7.56.41,18.24,18.24,0,0,0-3.45,2.19,12.6,12.6,0,0,0-2.75,2.9,66.88,66.88,0,0,0-6.82,13.48c-1.86,4.76-3.45,9.63-4.9,14.55-2.88,9.85-5.21,19.87-7.24,29.95-1.8,8.94-3.31,18-4.6,27q-1.22,8.64-2.21,17.33c-.32,2.9-.63,5.79-.9,8.69s-.52,5.79-.6,8.66c0,1.79,0,2.5-.21,2.5s-.52-.87-.74-2.43a74.3,74.3,0,0,1,.12-15.53c1.14-11.89,2.84-23.7,4.9-35.47s4.51-23.5,7.66-35.13c1.91-6.94,4-14,6.62-20.95a79.8,79.8,0,0,1,4.61-10.22c.47-.82.89-1.66,1.44-2.44a28.48,28.48,0,0,1,1.65-2.39,18.64,18.64,0,0,1,4.46-3.79c.45-.28.9-.55,1.37-.8l1.51-.69,1.6-.48,1.65-.25a13.08,13.08,0,0,1,6.43,1.16,16.84,16.84,0,0,1,8.68,9.17,37,37,0,0,1,1.59,6,57.2,57.2,0,0,1,.8,6.1,94.22,94.22,0,0,1,.08,12.23,238.41,238.41,0,0,1-3.56,29.69c-1.36,7.42-3.09,14.79-5,22.08s-3.82,14.57-6.13,21.71c-1.77,5.55-3.76,11-6,16.28-1.16,2.64-2.36,5.26-3.7,7.82l-.5,1a3.48,3.48,0,0,1-.84,1.15,7.34,7.34,0,0,1-2.18,1.26,21.29,21.29,0,0,1-4.39,1.12,36.68,36.68,0,0,1-7.77.35,24.43,24.43,0,0,1-10-2.5,10.25,10.25,0,0,1-3.66-2.83,7.54,7.54,0,0,1-.81-1.13c-.11-.23,0-.24.33-.1l1.54.87a25.29,25.29,0,0,0,7.1,2.48,33.78,33.78,0,0,0,7.4.72,32,32,0,0,0,7.4-.89,9.88,9.88,0,0,0,3.1-1.21,1.37,1.37,0,0,0,.2-.16l.06-.06a0,0,0,0,1,0,0c0,.06.11-.2.17-.31l.23-.44.9-1.73c1.17-2.34,2.29-4.71,3.33-7.14a219.07,219.07,0,0,0,10.1-30.45c4.17-15.54,7.81-31.26,9.29-47.25Z"/><path class="cls-1" d="M140.94,355.87c-.41-3.81-.69-7.64-.74-11.5a68.28,68.28,0,0,1,.7-11.58,41,41,0,0,1,1.3-5.74,26.59,26.59,0,0,1,2.4-5.48,17.83,17.83,0,0,1,4-4.62l1.28-.88c.43-.29.91-.48,1.37-.73a10.5,10.5,0,0,1,1.39-.61c.47-.19.95-.33,1.44-.48a15.24,15.24,0,0,1,4.43-.68,12.67,12.67,0,0,1,4.47.81,17.41,17.41,0,0,1,7.07,5.23,47.3,47.3,0,0,1,7.35,13,114.87,114.87,0,0,1,4.52,14.05,267.65,267.65,0,0,1,5.64,28.82c1.27,8.59,2.35,17.25,3.23,25.81,1.15,11,2.18,22.06,2.62,33.1.16,3.44-.39,3-1.08.14A106.93,106.93,0,0,1,190.29,420c-.9-11.22-2-22.43-3.36-33.61s-3.1-22.34-5.54-33.39a124.16,124.16,0,0,0-5.93-19.65,56.27,56.27,0,0,0-4.67-9.15,21.76,21.76,0,0,0-6.93-7,11.12,11.12,0,0,0-5-1.42,13.38,13.38,0,0,0-5.22.94,13.8,13.8,0,0,0-7.72,7.09A24.86,24.86,0,0,0,144,329a40.59,40.59,0,0,0-1,5.51,74.77,74.77,0,0,0-.42,11.31,177.42,177.42,0,0,0,3.57,27.86c.69,3.48,1.39,7,2.15,10.46s1.67,6.92,2.61,10.35q2.81,10.31,6.17,20.38c1.74,5.2,3.59,10.32,5.67,15.3,1,2.5,2.15,4.95,3.39,7.28l1,1.66a3.31,3.31,0,0,0,1.24.94,13.68,13.68,0,0,0,3.61,1.09,35.37,35.37,0,0,0,6.92.46,36.43,36.43,0,0,0,9.13-1.17,22.41,22.41,0,0,0,3.8-1.42c.19-.1.4-.24.6-.36s.35-.28.47-.35.24,0,.1.3a4.5,4.5,0,0,1-1.17,1.43,16.18,16.18,0,0,1-7.12,3,37.51,37.51,0,0,1-7.5.79,30.15,30.15,0,0,1-7.71-.86,8.63,8.63,0,0,1-4-2,5,5,0,0,1-.44-.54l-.27-.42-.53-.86a19.48,19.48,0,0,1-1-1.72,73.43,73.43,0,0,1-3.2-7c-3.8-9.5-6.94-19.31-9.85-29.23-2.13-7.35-4.13-14.85-5.58-22.41s-2.93-15.13-3.78-22.83Z"/><path class="cls-1" d="M184.75,308.18c3.6-.34,7.2-.65,10.8-.88,1.32-.08,2.63-.25,3.94-.31,4.64-.22,9.29-.23,13.93-.22l6.17,0c1.31,0,2.62,0,3.94.06s2.63.18,3.93.36c1.62.22-.57,1.77-3.54,1.68-5.3-.12-10.59-.07-15.95-.09-3.2,0-6.53.33-9.8.56-3.59.27-7.19.56-10.78,1-2.21.22-4.42.5-6.62.79l-5,.7c-1.66.27-3.32.52-5,.85-2.55.5-5,1.16-7.48,1.82-.55.15-1.08.29-1.63.42-2,.46-2.74.47-3.32,0a2.61,2.61,0,0,1-.4-.3c-.31-.37.44-.95,1.91-1.52,1.1-.41,2.21-.81,3.35-1.14s2.31-.61,3.49-.9c2.35-.55,4.75-1,7.17-1.45,3.58-.65,7.21-1.08,10.84-1.51Z"/><path class="cls-1" d="M257,312c.64.27,1.27.55,1.9.84l.94.44,1,.51a3.09,3.09,0,0,1,.84.73c.19.24.29.43.44.64a12.45,12.45,0,0,1,.64,1.26,15.6,15.6,0,0,1,.9,2.41,24.24,24.24,0,0,1,.39,8.72l-.23,1.9-.3,1.87c-.15.8-.32,1.59-.49,2.38a18.15,18.15,0,0,1-.81,2.28c-.21.47-.61.25-.91-.28a3.14,3.14,0,0,1-.3-2.24,45.79,45.79,0,0,0,1.21-9.24,16.39,16.39,0,0,0-1-5.54,13.18,13.18,0,0,0-.7-1.68,4.78,4.78,0,0,0-.78-1.16l-1.1-.51-1.18-.52c-1.22-.51-2.47-1-3.74-1.4-1.92-.63-3.87-1.25-5.84-1.69-1.53-.35-3.07-.53-4.61-.76-.34,0-.67-.1-1-.17-1.24-.29-1.61-.54-1.76-1.16a3.63,3.63,0,0,1-.1-.42c0-.45.55-.71,1.52-.71a23.39,23.39,0,0,1,4.31.42c1.45.24,2.91.57,4.36.94a52.63,52.63,0,0,1,6.41,2.08Z"/><path class="cls-1" d="M201.38,448c.14-.6.27-1.21.38-1.83,0-.22,0-.45.07-.67.15-.79.34-1.58.47-2.38a4.71,4.71,0,0,0,0-1.06,3.14,3.14,0,0,1,.08-1.33c.06-.14.48-.14.9,0s.84.35.86.62a8.21,8.21,0,0,1-.26,2.83,10,10,0,0,0-.19,1.72c-.07.63-.17,1.26-.27,1.89l-.19,1.17c-.09.59-.22,1.17-.26,1.77s0,.93,0,1.43a1.82,1.82,0,0,1,0,.33c-.07.41-.31.57-.84.42l-.38-.1a1.33,1.33,0,0,1-.77-.62,5.12,5.12,0,0,1,0-2.34l.3-1.83Z"/><path class="cls-1" d="M213.36,452.2l.8-2.91c.09-.36.13-.73.22-1.08.36-1.25.73-2.5,1.09-3.75a13.64,13.64,0,0,0,.33-1.69,6.41,6.41,0,0,1,.63-2.14c.12-.21.45-.09.76.18a1.68,1.68,0,0,1,.63,1.12,8.76,8.76,0,0,1-.33,2.21,21.35,21.35,0,0,1-.65,2.16,26.48,26.48,0,0,0-.62,2.7l-.76,3-.48,1.82c-.23.93-.51,1.84-.73,2.76-.16.72-.23,1.44-.38,2.17a4.15,4.15,0,0,1-.11.48c-.21.58-.41.74-.83.71a2.46,2.46,0,0,1-.28,0,.75.75,0,0,1-.47-.81,21.41,21.41,0,0,1,.44-3.93c.17-1,.47-2,.69-2.95Z"/><path class="cls-1" d="M189.05,462.88a9.22,9.22,0,0,1-2.36-1.16,4.57,4.57,0,0,1-1.77-2.47,4.49,4.49,0,0,1-.13-.79c0-.26,0-.52,0-.78a6.39,6.39,0,0,1,.35-1.37l.26-.62a3.21,3.21,0,0,1,.43-.69,5,5,0,0,1,1.05-1,9.92,9.92,0,0,1,3.34-1.59,21.3,21.3,0,0,1,6.07-.6,26.3,26.3,0,0,1,5.93.87,35,35,0,0,1,5,1.69,22,22,0,0,1,3,1.54,14.53,14.53,0,0,1,2.62,2.13c.49.51.14.75-.58.72a7,7,0,0,1-2.85-.82,31.14,31.14,0,0,0-12-3.83,17,17,0,0,0-7.64.91,6.69,6.69,0,0,0-1.73.88,2.58,2.58,0,0,0-1,1.37,2.76,2.76,0,0,0-.12,1.64,2.51,2.51,0,0,0,1.1,1.3,11.76,11.76,0,0,0,5,1.49,40.49,40.49,0,0,0,8.31,0,44.81,44.81,0,0,0,6.28-1.12l1.34-.35c1.66-.45,2.2-.39,2.72,0a3,3,0,0,1,.37.25c.33.29-.26.95-1.53,1.48a40.68,40.68,0,0,1-12.06,2,30.22,30.22,0,0,1-9.45-1Z"/><path class="cls-1" d="M156,459.81c0,.06-.13-.05-.24,0l-.17,0,.06,0v0l.19-.09c.22-.14,0-.09.12-.08a1,1,0,0,0,.26.19,2,2,0,0,0,.48.23,12.08,12.08,0,0,0,2.66.63,39.6,39.6,0,0,0,6,.31c1.49,0,3-.16,4.47-.26,2.62-.18,5.26-.42,7.87-.82,1.3-.2,2.59-.44,3.86-.73.64-.16,1.26-.32,1.87-.51a4,4,0,0,1,.46-.13l.26-.09.22-.09c.08,0,.09-.12.09-.2a2.9,2.9,0,0,0-.1-.62c0-.23-.09-.41-.11-.73a1.69,1.69,0,0,1,.16-.89,9.65,9.65,0,0,0,.71-4.32c0-1.47-.18-3-.29-4.48a14.67,14.67,0,0,1,.17-4.66c.31-1,.5-.73.71.07.14.41.32,1,.56,1.61a11.87,11.87,0,0,1,.48,2.27c.17,1.61.41,3.25.44,5a18.09,18.09,0,0,1-.11,2.63,11,11,0,0,1-.26,1.37c-.07.24-.13.47-.21.7l-.25.6c0,.05-.06-.09,0,.3l.25.8a4.73,4.73,0,0,1,.12,1,1.7,1.7,0,0,1-1,1.48c-.28.15-.56.35-.85.47l-.57.23a33.65,33.65,0,0,1-4.48,1,111.72,111.72,0,0,1-11.51,1.5,59.52,59.52,0,0,1-6.41.07,32.48,32.48,0,0,1-3.24-.29,12.92,12.92,0,0,1-3.33-.87,4.77,4.77,0,0,1-1.07-.66l-.26-.23c-.08-.09-.16-.2-.24-.31l-.22-.32a3.31,3.31,0,0,1-.14-.41,1.83,1.83,0,0,1-.07-.83,2,2,0,0,1,.18-.73,2.93,2.93,0,0,1,.76-1.13,7.34,7.34,0,0,1,1.83-1.21c.62-.3,1.24-.56,1.86-.79a99.81,99.81,0,0,1,11.43-3.09l4.39-.95.5-.12c.13-.12.05-.34.05-.49l-.14-.82-.22-1.07c-.13-.64-.29-1.26-.39-1.92-.42-2.44-.26-3.35.35-3.91a2,2,0,0,1,.41-.34c.23-.1.41.1.61.49a9.11,9.11,0,0,1,.62,1.9c.3,1.27.64,2.58.86,4,.06.34.11.7.16,1.06,0,.11,0,.15,0,.32l0,.48a5,5,0,0,1,0,1,1.6,1.6,0,0,1-.9,1.34,1.91,1.91,0,0,1-.89.26L174,454c-2.69.44-5.43,1-8.15,1.57a56.34,56.34,0,0,0-5.87,1.82,21.33,21.33,0,0,0-2.62,1.31,6.83,6.83,0,0,0-1,.75c-.06.05-.11.12-.16.17l-.09.13a.31.31,0,0,1,0,.13Z"/><path class="cls-1" d="M168,242.33a3.64,3.64,0,0,0,.71-.23.16.16,0,0,0,.12-.13c0-.07,0-.14-.05-.23a3.53,3.53,0,0,0-.72-.55,14,14,0,0,0-1.51-.63,35.27,35.27,0,0,0-6-1.61,23.91,23.91,0,0,0-2.78-.32c-1.18-.08-2.39-.14-3.53-.28-.32,0-.36-.33-.05-.68a2.49,2.49,0,0,1,1.64-.77c.63,0,1.26-.05,1.89,0s1.25.09,1.87.16a26.42,26.42,0,0,1,3.72.68,40.33,40.33,0,0,1,4.54,1.22,9.4,9.4,0,0,1,1.24.6,4.49,4.49,0,0,1,1.23,1,2.11,2.11,0,0,1,.56,1.81,2.27,2.27,0,0,1-1.09,1.53,7.66,7.66,0,0,1-3.31.81,37.64,37.64,0,0,1-4.76-.07c-1.22,0-2.42,0-3.63-.19-.27,0-.53,0-.8-.09-1-.18-1.3-.49-1.35-1a2.31,2.31,0,0,1,0-.37c.06-.39.48-.58,1.18-.6l3.15,0c1.06.07,2.14.15,3.21.19a17.06,17.06,0,0,0,4.53-.23Z"/><path class="cls-1" d="M167.65,247a2.69,2.69,0,0,0,1.12-.42.24.24,0,0,0,.07-.2c0-.08,0-.12-.2-.25a5.94,5.94,0,0,0-1.26-.56,31.94,31.94,0,0,0-5.47-1.35c-.84-.14-1.7-.21-2.55-.28a14.55,14.55,0,0,1-3.29-.49c-.37-.13-.22-.42.1-.69a2.45,2.45,0,0,1,1.5-.58h1.68l1.68.14a26.18,26.18,0,0,1,3.38.56,29.34,29.34,0,0,1,4.21,1,5.8,5.8,0,0,1,1.19.64,2.4,2.4,0,0,1,1,1.41,2.15,2.15,0,0,1-.38,1.69,3.05,3.05,0,0,1-1.21,1,8.49,8.49,0,0,1-3,.59,34.7,34.7,0,0,1-4.35-.24c-1.1-.1-2.2-.13-3.3-.3-.24,0-.48-.06-.72-.11-.9-.2-1.14-.48-1.18-1a2.23,2.23,0,0,1,0-.36c0-.39.47-.6,1.11-.62,1,0,1.92.05,2.89.11s1.93.22,2.9.3a15.86,15.86,0,0,0,4.09,0Z"/><path class="cls-1" d="M166.08,252.13a5,5,0,0,0,1-.12c.09,0,.1,0,.11,0h.06a.24.24,0,0,0,.11-.06.19.19,0,0,0,0-.29.35.35,0,0,0-.16-.12l-.53-.31a28.25,28.25,0,0,0-4.79-2,23.26,23.26,0,0,0-2.29-.58,13.69,13.69,0,0,1-2.94-.86c-.31-.15-.16-.43.18-.67a2.15,2.15,0,0,1,1.46-.42c.51.06,1,.12,1.54.21s1,.21,1.52.34a22,22,0,0,1,3,1,27.21,27.21,0,0,1,3.73,1.53,3.59,3.59,0,0,1,1.35,1.33,1.65,1.65,0,0,1,.19.9,2.1,2.1,0,0,1-.33.85,3.5,3.5,0,0,1-2.07,1.24,10.59,10.59,0,0,1-2.79.13,39.1,39.1,0,0,1-4-.57c-1-.17-2-.26-3-.5-.22-.05-.44-.08-.66-.15-.81-.24-1-.53-1-1.07,0-.12,0-.25,0-.36.09-.38.5-.57,1.09-.55.87.07,1.76.16,2.65.26l2.65.49a17.57,17.57,0,0,0,3.81.34Z"/><path class="cls-1" d="M162.91,257.82a3.52,3.52,0,0,0,.42,0,.22.22,0,0,0,.13,0,.18.18,0,0,0,.09-.26.23.23,0,0,0-.08-.09l-.33-.29a19,19,0,0,0-3-2.13,13.76,13.76,0,0,0-1.54-.76,6.8,6.8,0,0,1-1.93-1.16c-.18-.18,0-.39.34-.54a1.57,1.57,0,0,1,1.15-.18l1,.36c.34.15.68.3,1,.47a14.75,14.75,0,0,1,2,1.14,23,23,0,0,1,2.46,1.65,2.88,2.88,0,0,1,.9,1.39,1.63,1.63,0,0,1-.43,1.5,3.39,3.39,0,0,1-1.15.71,4.69,4.69,0,0,1-2.19.08,13.83,13.83,0,0,1-2.86-.9,16.8,16.8,0,0,1-2.11-.88,3.28,3.28,0,0,1-.44-.25c-.53-.35-.58-.64-.38-1.07a1.38,1.38,0,0,1,.14-.3.83.83,0,0,1,1-.29l1.76.59c.56.24,1.12.48,1.68.69a6.41,6.41,0,0,0,2.37.52Z"/><path class="cls-1" d="M168.07,290.56a10.66,10.66,0,0,0,2.76,2.05,6.51,6.51,0,0,0,1.18.45,10,10,0,0,0,4.47.6,7,7,0,0,0,1-.22,4.19,4.19,0,0,0,1-.33c.4-.19.81-.36,1.2-.57a6.16,6.16,0,0,1,1.22-.56c.28-.08.48.28.49.76a1.63,1.63,0,0,1-.7,1.4,10,10,0,0,1-6,1.42c-.31,0-.63-.06-.94-.08l-1-.15a9.15,9.15,0,0,1-1.87-.47,5.87,5.87,0,0,1-1-.41A8.11,8.11,0,0,1,169,294a13.63,13.63,0,0,1-1.69-1.21,17.6,17.6,0,0,1-1.79-1.77c-.38-.51-.79-1-1.12-1.54s-.69-1.05-1-1.61-.49-.84-.7-1.27l-.62-1.3a6.13,6.13,0,0,1-.22-.6c-.21-.76-.14-1,.31-1.31a1.83,1.83,0,0,1,.3-.18c.35-.15.75.07,1,.54.78,1.41,1.6,2.76,2.42,4.08a16.2,16.2,0,0,0,2.14,2.73Z"/><path class="cls-1" d="M288.4,338.59l-9.53-.31c-1.16,0-2.32,0-3.48,0l-12.27-.43c-1.81-.06-3.64-.05-5.44,0a35.81,35.81,0,0,1-6.94-.2c-.72-.17-.63-.53,0-1a4.91,4.91,0,0,1,3.06-1.21,134.91,134.91,0,0,1,14.21.25c2.85.2,5.82.08,8.73.13l9.62.19,5.91.11c3,0,6,.12,8.95.07,2.31,0,4.57-.24,6.85-.37.5,0,1-.09,1.5-.11,1.88-.05,2.47.12,2.87.92a5,5,0,0,1,.26.52c.17.54-.6,1.12-2,1.26a99.76,99.76,0,0,1-12.68.49c-3.2,0-6.41-.1-9.62-.15Z"/><path class="cls-1" d="M336.11,350.44l-21.46-.12-7.83,0-27.59-.2c-4.08,0-8.19,0-12.23.08-5.21.07-10.43.31-15.63-.07-1.62-.15-1.41-.52,0-1a20.53,20.53,0,0,1,6.88-1.27c10.63-.24,21.25-.28,32,0,6.41.15,13.08,0,19.63,0h34.93c6.72,0,13.47,0,20.13-.1l3.87-.09a28.22,28.22,0,0,0,3.73-.27,23.14,23.14,0,0,0,7-2.14,19.16,19.16,0,0,0,2.67-1.65,25.89,25.89,0,0,0,3.06-2.72,4.49,4.49,0,0,1,1.68-1.13,7,7,0,0,1,.75-.27c.36,0,.42.36.22,1.19a5.07,5.07,0,0,1-.62,1.47,11.37,11.37,0,0,1-1.32,1.81,18.76,18.76,0,0,1-6.14,4.33,26,26,0,0,1-7.32,1.95,35.29,35.29,0,0,1-3.77.18l-3.61.05-7.26.05-21.65,0Z"/><path class="cls-1" d="M384.77,348.46q2-19.63,5.19-39.12c.76-4.74,1.48-9.49,2.35-14.2,3.09-16.63,6.74-33.16,11.47-49.42A224.71,224.71,0,0,1,411,224.34c.91-2.23,1.88-4.45,3-6.63a35.14,35.14,0,0,1,4-6.28,12.47,12.47,0,0,1,2.95-2.67,6.82,6.82,0,0,1,2-.87l.57-.11.59,0a7.23,7.23,0,0,1,1.15.14,4.83,4.83,0,0,1,2.11,1.05,5.27,5.27,0,0,1,1.31,1.81,8.36,8.36,0,0,1,.5,3.94c-.12,1.59-.49,2.21-.62,2.13s-.15-.85-.4-2.08a6.9,6.9,0,0,0-.77-2,2.06,2.06,0,0,0-.36-.49,3.08,3.08,0,0,0-1.2-1.15,1.82,1.82,0,0,0-.94-.2h-.24l-.27.05-.13,0s-.08,0-.12.05a1,1,0,0,0-.22.06,6.35,6.35,0,0,0-2.23,1.55,24.93,24.93,0,0,0-3.93,5.35,69.16,69.16,0,0,0-3.19,6.32c-1.93,4.37-3.56,8.91-5.1,13.49-3.05,9.19-5.64,18.59-8.05,28.08-2.87,11.36-5.08,23.38-7.13,35.2q-3.37,19.5-5.71,39.17-1.43,12.11-2.4,24.26c-.95,12.26-1.61,24.62-1.58,36.82a218.83,218.83,0,0,0,1.77,28c.27,2,.61,4,1,6,.71,3.75,1.33,6.17,1.75,7.86.16.87.33,1.54.42,2.12s.14,1.05.18,1.48.12.91.1,1.17c0,.44-.48,0-1.29-1.23a23.59,23.59,0,0,1-2.53-6.1,89.67,89.67,0,0,1-2.49-12.7c-.56-4.31-.94-8.68-1.18-13.08-.47-8.8-.48-17.73-.24-26.66.38-13.26,1.36-26.54,2.66-39.75Z"/><path class="cls-1" d="M346.39,414.85c.73-5,1.26-10.13,1.6-15.23.11-1.87.16-3.73.23-5.59.3-6.58.35-13.17.07-19.75-.12-2.92-.41-5.84-.71-8.72-.2-1.85-.48-3.69-.75-5.53s-.47-3.68-.87-5.43c-.27-1,.06-1.13.86-.31A11,11,0,0,1,349,359a112.43,112.43,0,0,1,1.73,23.09c-.09,4.63,0,9.45-.21,14.18-.24,5.2-.67,10.4-1.3,15.57-.4,3.18-.84,6.35-1.4,9.51-.82,4.78-1.89,9.54-3.1,14.21-.92,3.63-1.94,7.17-3.15,10.69-.29.77-.55,1.53-.87,2.29a14.48,14.48,0,0,1-1.49,2.9,5.85,5.85,0,0,1-.64.66,5.65,5.65,0,0,1-.95.66c-.2.06-.23-.21-.15-.78.05-.28.09-.65.15-1.08a7.73,7.73,0,0,1,.41-1.41c2.06-6.19,3.94-12.75,5.51-19.46,1.13-5,2.07-10.06,2.75-15.16Z"/><path class="cls-1" d="M354.71,279.08c3.7,2.43,7.09,5.12,10.68,7.42,1.31.84,2.67,1.57,4,2.28a24.66,24.66,0,0,0,7.43,2.72,13.92,13.92,0,0,0,7.67-.87,19.78,19.78,0,0,0,5.81-4l1.56-1.7c.54-.54,1-1.21,1.46-1.8,1-1.16,1.9-2.46,2.91-3.67.63-.75.81-.5.68.41a11.1,11.1,0,0,1-.44,1.79,8.56,8.56,0,0,1-1.09,2.31c-.47.69-1,1.36-1.45,2l-1.66,1.91a18.14,18.14,0,0,1-1.83,1.78c-.33.27-.63.58-1,.82l-1.07.74a16.32,16.32,0,0,1-10,2.88,26.32,26.32,0,0,1-6.16-1.25,33.12,33.12,0,0,1-5.65-2.54c-3.92-2.18-7.44-4.83-11-7.28a60.42,60.42,0,0,0-6.74-4.21,23.42,23.42,0,0,0-5.47-2.11,11.36,11.36,0,0,0-5.62.17l-1,.38a5.2,5.2,0,0,0-1,.51c-.31.19-.63.36-.93.56a10.44,10.44,0,0,0-.83.66,12.48,12.48,0,0,0-2.64,3.37c-.32.56-.58,1.13-.87,1.73a23.75,23.75,0,0,1-1.19,2.34,2.94,2.94,0,0,1-1,.92,2.72,2.72,0,0,1-.42.24c-.21.07-.3-.17-.33-.68a6.3,6.3,0,0,1,.25-2.22,15.66,15.66,0,0,1,4.64-8,9.48,9.48,0,0,1,1-.77l1.08-.62a10.28,10.28,0,0,1,2.32-1l.61-.21.63-.12,1.27-.22a18,18,0,0,1,2.54,0,19.72,19.72,0,0,1,6.92,2,46.9,46.9,0,0,1,5.95,3.35Z"/><path class="cls-1" d="M79,277.85a44.06,44.06,0,0,1,9.86,6c1.09.82,2.22,1.57,3.28,2.4,3.75,2.85,7.45,5.82,11.8,7.13a12.4,12.4,0,0,0,5.86.28,15.1,15.1,0,0,0,3.59-1.23c.58-.26,1.14-.59,1.73-.87s1.11-.67,1.7-1,.86-.09.55.66a7.82,7.82,0,0,1-.82,1.44,8.05,8.05,0,0,1-1.65,1.57,14,14,0,0,1-8.76,2.15,16.82,16.82,0,0,1-4.42-1,24.52,24.52,0,0,1-3.94-2c-3-1.79-5.85-3.74-8.58-5.75a67.52,67.52,0,0,0-9.14-6,18.69,18.69,0,0,0-6.16-2,13.38,13.38,0,0,0-4.84.25,8.2,8.2,0,0,0-1.17.34,11.48,11.48,0,0,0-1.16.43,16.78,16.78,0,0,0-2.15,1.13,19.14,19.14,0,0,0-4.86,5.7l-.82,1.45a13.43,13.43,0,0,1-1.2,1.88,2.56,2.56,0,0,1-1,.67,3.57,3.57,0,0,1-.44.17c-.21,0-.32-.18-.37-.64a4.68,4.68,0,0,1,.24-2,21.67,21.67,0,0,1,3.68-6.81,15.58,15.58,0,0,1,3.06-2.87c.31-.21.64-.41.95-.6l.93-.46.94-.46c.32-.15.66-.25,1-.38a17.31,17.31,0,0,1,12.36.31Z"/><path class="cls-1" d="M349.31,331.85a58.35,58.35,0,0,0,13.92,3c.86,0,1.73.1,2.58.06l1.29,0,1.27-.09a23.46,23.46,0,0,0,8.66-2.16,20.36,20.36,0,0,0,7-5.54,27.36,27.36,0,0,0,4-7A74.94,74.94,0,0,0,390.91,310c.25-1.08.55-.89.76.09a12.78,12.78,0,0,1,0,4.86,33.83,33.83,0,0,1-3.78,10.6,22.13,22.13,0,0,1-8,8.19,28,28,0,0,1-6.45,2.73,29.23,29.23,0,0,1-6.93,1A40.44,40.44,0,0,1,359,337a64.86,64.86,0,0,1-7.35-1.57c-3-.82-5.86-1.81-8.72-2.89-1.08-.41-2.14-.87-3.21-1.31-.54-.23-1.05-.42-1.57-.61l-.76-.28-.79-.2a12,12,0,0,0-6.35,0,10.84,10.84,0,0,0-4.2,2.42,15.56,15.56,0,0,0-2.95,3.88c-.16.33-.32.65-.49,1s-.28.67-.43,1c-1.05,2.51-1.33,3.35-2.17,3.76a3.76,3.76,0,0,1-.56.29c-.29.07-.47-.2-.52-.77a7,7,0,0,1,.3-2.51,20.37,20.37,0,0,1,1.87-4.71,16.88,16.88,0,0,1,3.37-4.18,14.24,14.24,0,0,1,4.91-2.73A14,14,0,0,1,335,327a12.73,12.73,0,0,1,2,.35,13.1,13.1,0,0,1,2,.57c1.35.47,2.35.91,3.51,1.36,2.26.88,4.53,1.75,6.82,2.49Z"/><path class="cls-1" d="M349.21,309.31a26,26,0,0,0-.79,10.23c.12.61.23,1.23.37,1.84l.53,1.8a17.37,17.37,0,0,0,8.05,10.08,16.56,16.56,0,0,0,2.74,1.16A21,21,0,0,0,363,335a12.1,12.1,0,0,0,1.91.15c.64,0,1.28.07,1.92,0s1.29,0,1.94,0l1.95-.18c.82-.05.78.24.16.7a8.39,8.39,0,0,1-3.43,1.5,19,19,0,0,1-8.59-.67,17,17,0,0,1-7.34-4.75,22.38,22.38,0,0,1-5.06-9.23,25.68,25.68,0,0,1-.24-11.4,32.42,32.42,0,0,1,2.19-6.63,33.24,33.24,0,0,1,5.93-8.62,38.77,38.77,0,0,1,6-5.34c.49-.33,1-.67,1.46-1a6.48,6.48,0,0,1,2.12-1,1.86,1.86,0,0,1,1.16,0,1.84,1.84,0,0,1,.42.16c.34.23-.28,1-1.52,1.88-1,.6-1.85,1.35-2.8,2l-1.34,1.11a15.85,15.85,0,0,0-1.31,1.15L357.25,296l-1.2,1.28a16.13,16.13,0,0,0-1.14,1.34c-.36.46-.77.89-1.08,1.38a29.09,29.09,0,0,0-4.56,9.32Z"/><path class="cls-1" d="M72.48,309.91a27.29,27.29,0,0,0-1.12,10.27c.09.62.19,1.24.31,1.85l.47,1.82a15.55,15.55,0,0,0,8,9.95,15.19,15.19,0,0,0,5.75,1.48l.95.08,1,0a15.58,15.58,0,0,0,1.93-.08c.65-.06,1.3-.06,2-.11l2-.21c.82-.08.79.21.17.69a8.69,8.69,0,0,1-3.39,1.59,19.65,19.65,0,0,1-8.62-.29,16,16,0,0,1-7.56-4.52,22,22,0,0,1-3.1-4.36,22.36,22.36,0,0,1-1.1-2.45c-.14-.42-.32-.84-.44-1.27L69.33,323a26.08,26.08,0,0,1,.14-11.43,37.07,37.07,0,0,1,2.29-6.6,37.64,37.64,0,0,1,5.83-8.72,43.47,43.47,0,0,1,5.78-5.57c.47-.35.93-.71,1.41-1.05a6.4,6.4,0,0,1,2.08-1.09,1.79,1.79,0,0,1,1.16,0,2,2,0,0,1,.43.14c.35.21-.24,1-1.44,1.95-.93.66-1.79,1.44-2.71,2.14s-1.77,1.51-2.57,2.38a36.87,36.87,0,0,0-4.59,5.37,32.53,32.53,0,0,0-4.6,9.41Z"/><path class="cls-1" d="M362.53,317.46a11.54,11.54,0,0,1,.07-6.28,12.69,12.69,0,0,1,.75-2.12,10.86,10.86,0,0,1,5.55-5.4,3.88,3.88,0,0,1,.83-.29l.85-.24a14.61,14.61,0,0,1,1.75-.18,6.07,6.07,0,0,1,2.2.39,6.3,6.3,0,0,1,1.91,1.07c.36.27.13.49-.36.63a4.74,4.74,0,0,1-.87.15c-.32,0-.65,0-1,0l-.88-.11a4,4,0,0,1-.85,0,7.06,7.06,0,0,0-1.67.2,9.26,9.26,0,0,0-3.16,1.54,8.21,8.21,0,0,0-2.61,3.76,9.64,9.64,0,0,0-.51,5,13.77,13.77,0,0,0,.4,1.53c.09.24.21.46.31.69s.27.43.39.65a6.36,6.36,0,0,0,1.67,1.6,6.71,6.71,0,0,0,2.22.84,10.75,10.75,0,0,0,3.71-.15c.27,0,.53-.13.8-.18s.45-.1.63-.12a3.32,3.32,0,0,1,.47,0,1.17,1.17,0,0,1,.65.31c.08.08.18.14.25.22.21.24-.09.72-.85,1.22a9.28,9.28,0,0,1-8.25.36,7.78,7.78,0,0,1-4.45-5.12Z"/><path class="cls-1" d="M85.37,316.2a10,10,0,0,1,0-5.87c.09-.35.22-.67.33-1a4.1,4.1,0,0,1,.39-1,11.59,11.59,0,0,1,5.06-5.05,10.07,10.07,0,0,1,1.48-.62c.25-.09.49-.19.75-.26l.79-.17a3.92,3.92,0,0,1,1-.11,4,4,0,0,1,1,.07c.34.07.68.15,1,.24s.63.32.92.49.17.45-.27.66a6.14,6.14,0,0,1-1.66.48,11.49,11.49,0,0,0-1.56.22c-.25.07-.51.12-.77.18l-.76.27a4.46,4.46,0,0,0-.74.34,7.39,7.39,0,0,0-.74.38l-.74.42-.7.5a8,8,0,0,0-2.43,3.44,8.23,8.23,0,0,0-.44,4.58c.14.46.26.93.41,1.39l.29.65.36.62a6.11,6.11,0,0,0,1.46,1.54,5.51,5.51,0,0,0,2,.85,9.28,9.28,0,0,0,3.36-.18c.25-.06.48-.14.73-.18a2.17,2.17,0,0,1,1-.1,1.1,1.1,0,0,1,.61.32,2.61,2.61,0,0,1,.24.22c.21.24-.06.7-.74,1.2a9.13,9.13,0,0,1-3.63,1.16,8.27,8.27,0,0,1-4.11-.82,7.85,7.85,0,0,1-4-4.85Z"/><path class="cls-1" d="M114,334.43l5.82.15c.71,0,1.42,0,2.13,0,2.49.1,5,.22,7.48.29,1.11,0,2.22,0,3.32-.05l2.12-.1a15.32,15.32,0,0,1,2.12.19c.44.08.38.47,0,.9a3.32,3.32,0,0,1-1.87,1.07,69.54,69.54,0,0,1-8.66,0c-1.74-.13-3.54,0-5.32,0l-5.86-.07-3.61,0c-1.82,0-3.65,0-5.46,0-1.4.05-2.78.25-4.17.37-.31,0-.6.08-.91.09-1.15.06-1.51-.1-1.76-.73a3.69,3.69,0,0,1-.17-.42c-.11-.49.36-.9,1.19-1.07a42.68,42.68,0,0,1,7.73-.64c2,0,3.92,0,5.88,0Z"/><path class="cls-1" d="M191.33,334.84l5.29.14c.64,0,1.28-.05,1.93,0,2.26.09,4.53.21,6.8.27,1,0,2,0,3-.05l1.93-.11a11.34,11.34,0,0,1,1.92.18c.4.08.35.46,0,.89a3,3,0,0,1-1.7,1.06,59.06,59.06,0,0,1-7.87,0c-1.58-.13-3.22,0-4.84,0l-5.32-.06-3.28,0c-1.66,0-3.32,0-5,0-1.28.06-2.53.26-3.79.39-.28,0-.55.07-.83.09-1,.05-1.37-.11-1.6-.72a3.52,3.52,0,0,1-.15-.42c-.1-.48.32-.89,1.08-1.06a36.2,36.2,0,0,1,7-.65c1.77,0,3.56,0,5.33,0Z"/><path class="cls-1" d="M190.86,347.63c1.24,0,2.48.06,3.73.06.46,0,.91-.07,1.37-.05,1.61,0,3.22.11,4.83.13.72,0,1.44,0,2.15-.11l1.36-.12a6,6,0,0,1,1.39.18c.28.07.25.46,0,.88a2.07,2.07,0,0,1-1.17,1.06,31.2,31.2,0,0,1-5.56.1,30.28,30.28,0,0,0-3.42.14c-1.27,0-2.53,0-3.8,0h-2.34c-1.18,0-2.37-.05-3.55,0-.92,0-1.82.16-2.76.18-.21,0-.41,0-.62,0-.78-.06-1-.28-1.06-.91a3.17,3.17,0,0,1,0-.43,1,1,0,0,1,.89-.91,29.11,29.11,0,0,1,4.81-.26h3.73Z"/><path class="cls-1" d="M89.93,348q6,.15,12,.24h4.37l15.44.26c2.28,0,4.58,0,6.84,0,1.46,0,2.92-.08,4.38-.06s2.91.08,4.37.26c.91.11.78.45,0,.88a9.89,9.89,0,0,1-3.85,1.09c-5.94.24-11.87.28-17.87,0-3.58-.14-7.31,0-11,0l-12.1-.06-7.44-.09-5.65-.08-2.83-.05a21.56,21.56,0,0,1-2.91-.28,37.5,37.5,0,0,1-8.49-2.53,18.5,18.5,0,0,1-1.75-.81c-2.14-1.11-2.64-1.75-2.73-2.61a4,4,0,0,1-.08-.53c0-.24.27-.32.77-.33a5.15,5.15,0,0,1,2,.48c4.73,1.82,9.4,4.05,14.44,3.92l12.08.2Z"/><path class="cls-1" d="M365,395.62a11,11,0,0,0,2.07.24,6.13,6.13,0,0,0,1.05,0l1.06-.14c.52-.06,1-.34,1.49-.45a14,14,0,0,0,4.86-2.88,11.16,11.16,0,0,0,1.61-2c.28-.48.59-.94.84-1.44a7,7,0,0,1,.9-1.4c.24-.27.75,0,1.12.53a2,2,0,0,1,.26,1.95,14.48,14.48,0,0,1-5.17,5.57c-.7.36-1.3.85-2,1.18l-1.05.56c-.37.15-.75.28-1.12.41a13.81,13.81,0,0,1-2.55.56c-.43,0-.87,0-1.3.05h-.65c-.22,0-.43,0-.65-.07a10.43,10.43,0,0,1-1.57-.23l-1.53-.4a18.21,18.21,0,0,1-2.17-.94,20.27,20.27,0,0,1-2-1.22c-.48-.35-1-.61-1.51-1l-1.44-1.09a2.92,2.92,0,0,1-.55-.56c-.59-.79-.64-1.15-.35-1.65a2.63,2.63,0,0,1,.2-.33c.26-.32.79-.26,1.4.07l.67.38c.22.12.38.3.6.41.42.27.82.54,1.2.83s.81.51,1.2.79c.21.12.4.27.6.39l.63.32a14.25,14.25,0,0,0,3.9,1.5Z"/><path class="cls-1" d="M102.17,400a19.57,19.57,0,0,1-2,.52,17.9,17.9,0,0,1-2,.22,10.6,10.6,0,0,1-1.49.05,13.23,13.23,0,0,1-5-1.37,9.4,9.4,0,0,1-1-.49c-.33-.17-.69-.31-1-.49s-.84-.46-1.25-.71a4.84,4.84,0,0,1-1-1c-.18-.24.25-.65.8-.93s1.22-.48,1.59-.2A27.91,27.91,0,0,0,94.09,398a4.89,4.89,0,0,0,1.47.37c.51,0,1,0,1.54,0a12.44,12.44,0,0,0,3.36-.51,7.13,7.13,0,0,0,1-.36,6.12,6.12,0,0,0,1-.44,14.48,14.48,0,0,0,1.42-.82,7.47,7.47,0,0,0,1.29-1,12,12,0,0,0,1.57-2,2.06,2.06,0,0,1,.31-.46,1,1,0,0,1,1.32-.34,3.82,3.82,0,0,1,.36.13c.38.18.49.63.33,1.22a8.46,8.46,0,0,1-3.2,4.25,9.69,9.69,0,0,1-1.75,1.13,14.22,14.22,0,0,1-1.91.85Z"/><path class="cls-1" d="M76.13,416.63c.64-5.22,1.2-10.46,1.63-15.71.17-1.91.23-3.83.38-5.75.49-6.75.88-13.52,1-20.29.07-3,0-6-.16-9-.11-1.9-.26-3.81-.47-5.69a54.14,54.14,0,0,0-.78-5.51c-.28-.93.14-1.22,1.08-.42a5.74,5.74,0,0,1,.66.8,6.2,6.2,0,0,1,.66,1.14,10,10,0,0,1,.85,3,108.58,108.58,0,0,1,.72,11.91q.06,5.94-.31,11.88c-.33,4.75-.42,9.68-.75,14.53-.37,5.32-.86,10.64-1.44,16-.35,3.26-.77,6.52-1.19,9.78-.67,4.93-1.47,9.86-2.33,14.73-.68,3.79-1.27,7.52-2.16,11.25-.2.82-.38,1.63-.6,2.45-.91,3-1.51,3.93-2.42,4.29a2.9,2.9,0,0,1-.62.22c-.64.05-.58-1.27,0-3.43.83-3.21,1.54-6.56,2.19-10s1.29-6.9,1.83-10.41c.82-5.21,1.56-10.48,2.15-15.75Z"/><path class="cls-1" d="M112.68,410.73c-.38-4.25-.68-8.51-.94-12.77-.09-1.56-.25-3.11-.31-4.66-.26-5.49-.36-11-.25-16.47l.09-7.31a35.78,35.78,0,0,1,1.15-9.37c.36-1,.68-.66.87.21a17.25,17.25,0,0,1,.38,4.09c-.15,6.2-.09,12.5-.14,18.84-.1,3.81.18,7.76.36,11.64.19,4.27.43,8.55.75,12.82.2,2.63.41,5.25.67,7.87.4,4,.84,8,1.45,11.86.47,3,1.11,6,1.82,8.93.14.65.34,1.27.5,1.92.58,2.41.73,3.17.5,3.82a1.94,1.94,0,0,1-.16.43c-.2.34-.84-.54-1.48-2.31a95.29,95.29,0,0,1-3.77-16.68c-.64-4.26-1.11-8.56-1.54-12.85Z"/><path class="cls-1" d="M108.84,314c3.94-9.91,6.69-20.36,9.2-30.83.91-3.83,1.7-7.68,2.55-11.52,3-13.55,5.74-27.19,9.29-40.69a126,126,0,0,1,5.79-17.72,35.3,35.3,0,0,1,2.9-5.36,12.45,12.45,0,0,1,4.73-4.38,8.25,8.25,0,0,1,3.33-.76,6.27,6.27,0,0,1,3.39,1,7,7,0,0,1,2.31,2.46,10.66,10.66,0,0,1,1.14,3c.25,1.29.1,1.87-.07,1.85s-.49-.6-1-1.49a9.09,9.09,0,0,0-2.63-2.91,4.52,4.52,0,0,0-4.13-.65c-2.85.69-5.05,4.09-6.72,7.46a80.41,80.41,0,0,0-4.21,11c-2.38,7.57-4.27,15.39-6.18,23.23-2.27,9.4-4.13,19.31-6.31,29a317.83,317.83,0,0,1-8.54,31.64,90.66,90.66,0,0,1-8.33,18.48,32.93,32.93,0,0,1-4.84,6.11,17.62,17.62,0,0,1-6.69,4.23,21.6,21.6,0,0,1-7.8.9,42,42,0,0,1-7.62-1.18c-3.86-.94-7.57-2.18-11.24-3.42a27.92,27.92,0,0,0-5.41-1.33,11.25,11.25,0,0,0-5.19.47,9.82,9.82,0,0,0-3.68,2.55,19.75,19.75,0,0,0-2.28,3l-1.43,2.22a8.92,8.92,0,0,1-1.93,2.35,5,5,0,0,1-.82.63c-.37.18-.41-.38-.13-1.54a21.14,21.14,0,0,1,2.1-5.06,17.79,17.79,0,0,1,3.47-4.43,11.44,11.44,0,0,1,5.35-2.76,15.16,15.16,0,0,1,5.93,0,12.57,12.57,0,0,1,1.41.3c.46.12.94.21,1.39.35.89.29,1.82.57,2.65.87,3.39,1.18,6.77,2.33,10.21,3.19A34.23,34.23,0,0,0,89,335.39a14.12,14.12,0,0,0,6.85-2.16A21.7,21.7,0,0,0,101.3,328a60.91,60.91,0,0,0,7.48-14Z"/><path class="cls-1" d="M353.92,215.44,334,215.16l-7.27,0-25.62-.41c-3.79-.05-7.6,0-11.36,0-4.83,0-9.68.17-14.51,0-3-.12.8-1.9,6.37-2,9.86-.12,19.72-.14,29.67.1,6,.14,12.14,0,18.23,0l20.08.17,12.36.14c6.23.06,12.5.16,18.69.18,4.82,0,9.54-.13,14.3-.14,1.05,0,2.08,0,3.14,0a31,31,0,0,1,4.17.28,3.43,3.43,0,0,1,1.85.82,2.5,2.5,0,0,1,.48.51c.13.27-.22.48-.92.62a8.47,8.47,0,0,1-1.3.14c-.53,0-1.18.08-1.89.09-8.47.18-17.44.18-26.44.1l-20.1-.19Z"/><path class="cls-1" d="M355.86,245.05l-12.43-.29c-1.51,0-3,0-4.53,0l-16-.48c-2.36-.06-4.74,0-7.08,0-3,0-6,.13-9.06-.09-1.87-.14.5-1.91,4-2,6.16-.08,12.31-.06,18.51.21,3.71.16,7.58,0,11.37.08l12.53.19,7.71.12c3.89,0,7.8.12,11.66.09,3,0,5.95-.19,8.92-.3.65,0,1.29-.08,2-.09,2.44,0,3.22.13,3.74.81a3.46,3.46,0,0,1,.34.47c.23.52-.77,1-2.56,1.1-5.31.44-10.91.48-16.52.46l-12.54-.14Z"/><path class="cls-1" d="M372.09,275.15l-4.81-.29c-.58,0-1.16,0-1.75-.05-2.06-.16-4.12-.35-6.18-.47-.91-.06-1.83,0-2.74,0a17.09,17.09,0,0,1-3.5-.09c-.72-.13.2-1.86,1.55-1.92a50.48,50.48,0,0,1,7.16.21c1.43.15,2.93,0,4.4.07s3.23.13,4.84.19l3,.12c1.51.05,3,.13,4.51.1,1.16,0,2.3-.19,3.45-.3.25,0,.5-.07.76-.08.94,0,1.24.13,1.44.79,0,.15.1.3.13.45.08.51-.31.93-1,1.07a30,30,0,0,1-6.39.44c-1.61,0-3.23-.09-4.85-.14Z"/><path class="cls-1" d="M316.13,274.43c-1.07-.1-2.15-.14-3.23-.16-.4,0-.79.05-1.19,0l-4.27-.14c-.63,0-1.27,0-1.9.07a7.28,7.28,0,0,1-2.42,0c-.5-.12.13-1.85,1-1.94a31.31,31.31,0,0,1,4.85-.07,23.67,23.67,0,0,0,3-.17c1.12-.05,2.25,0,3.38,0l2.08.11c1,.06,2.09.18,3.13.23.8,0,1.6-.06,2.41-.09.18,0,.35,0,.53,0,.66,0,.85.22.9.89,0,.16,0,.31,0,.46a1,1,0,0,1-.81,1,17.75,17.75,0,0,1-4.31.06c-1.07-.06-2.14-.17-3.22-.2Z"/><path class="cls-1" d="M145.2,273.83c-1-.06-2-.1-3-.12-.37,0-.73,0-1.1,0l-3.91-.2a16.74,16.74,0,0,0-1.73.05,6.31,6.31,0,0,1-2.21,0c-.46-.12.12-1.85.94-1.93a23.5,23.5,0,0,1,4.44,0,21.47,21.47,0,0,0,2.76-.12c1,0,2,0,3.06,0l1.89.06c1,0,1.91.08,2.86.06.73,0,1.45-.17,2.19-.26a3.93,3.93,0,0,1,.48-.06c.6,0,.78.15.88.81,0,.15.05.31.06.46a1,1,0,0,1-.67,1,13.49,13.49,0,0,1-4,.37l-3-.07Z"/><path class="cls-1" d="M146.25,244a9.34,9.34,0,0,0-1.46-.18,4.62,4.62,0,0,0-.48,0,8.06,8.06,0,0,1-1.21,0c-.4,0-.77-.06-1.14-.1a5.12,5.12,0,0,0-1,0,2.12,2.12,0,0,1-1.22,0c-.25-.12.07-1.86.51-1.93a6.79,6.79,0,0,1,2.34,0,1.3,1.3,0,0,0,.65,0c.19-.05.41-.15.71-.21a6.92,6.92,0,0,1,1.87,0l1,.1a14,14,0,0,0,1.56.11,6.48,6.48,0,0,0,1.2-.27,2.68,2.68,0,0,1,.27-.07c.33,0,.42.14.46.8l0,.45a1.17,1.17,0,0,1-.39,1.06,3.91,3.91,0,0,1-2.18.39c-.53,0-1.08-.1-1.6-.14Z"/><path class="cls-1" d="M144.57,303.8c-1.36-.06-2.72-.11-4.08-.14-.49,0-1,0-1.49,0-1.75-.09-3.51-.18-5.26-.23-.78,0-1.56,0-2.34.05a11.51,11.51,0,0,1-3,0c-.62-.12.16-1.86,1.28-1.94a42.22,42.22,0,0,1,6.06,0,36.15,36.15,0,0,0,3.74-.1c1.37,0,2.75,0,4.13,0l2.54,0c1.28,0,2.57.08,3.85,0,1,0,2-.19,3-.27.22,0,.44-.06.66-.06.81,0,1.06.16,1.2.82a4.14,4.14,0,0,1,.09.46,1,1,0,0,1-.88,1,26.45,26.45,0,0,1-5.37.39l-4.09-.06Z"/><path class="cls-1" d="M318.47,304.54c-1.35-.05-2.71-.1-4.07-.13-.5,0-1,0-1.49,0-1.75-.08-3.51-.18-5.27-.22-.78,0-1.56,0-2.33.05a11.51,11.51,0,0,1-3,0c-.62-.12.16-1.86,1.28-1.94a42.09,42.09,0,0,1,6,0,36.08,36.08,0,0,0,3.74-.1c1.38,0,2.75,0,4.13,0l2.54,0c1.29,0,2.58.08,3.85,0,1,0,2-.18,3-.26.22,0,.43-.06.65-.06.81,0,1.07.16,1.21.82,0,.16.07.31.09.46a1,1,0,0,1-.88,1,26.6,26.6,0,0,1-5.38.39l-4.09-.06Z"/><path class="cls-1" d="M342.43,170.75a28.14,28.14,0,0,1,2.79-7.94,21,21,0,0,1,2.4-3.54,13.79,13.79,0,0,1,3.26-2.92,16.17,16.17,0,0,1,5.82-2.43,17.88,17.88,0,0,1,10.8,1.27,24.05,24.05,0,0,1,8.31,6.66,75.21,75.21,0,0,1,5.28,7.57,44.87,44.87,0,0,0,3.27,4.66,15,15,0,0,0,1.91,1.91,4.88,4.88,0,0,0,2.2,1.15c1,.11,1.07.49-.06,1a4.34,4.34,0,0,1-2.49-.07,6.35,6.35,0,0,1-1.52-.68,8.62,8.62,0,0,1-1.37-1.15,33.6,33.6,0,0,1-3.72-5c-1.08-1.66-2.14-3.31-3.25-4.88a27.25,27.25,0,0,0-7.8-8.05,14.94,14.94,0,0,0-13-1.35,12.71,12.71,0,0,0-6,4.2,21.49,21.49,0,0,0-3.57,6.76,31.68,31.68,0,0,0-1.46,9.5,38.43,38.43,0,0,0,2.66,14.39,29.38,29.38,0,0,0,6,9.34c.58.56,1.15,1.1,1.75,1.64,1.09,1,1.89,1.59,2.4,2.08a5.92,5.92,0,0,1,.95,1.24c.08.16.22.35.26.47s-.21.22-.81.11a7.3,7.3,0,0,1-2.59-1,17.64,17.64,0,0,1-4.23-3.45,26.45,26.45,0,0,1-3.34-4.44A37.23,37.23,0,0,1,343,187.44a40.79,40.79,0,0,1-.64-16.69Z"/><path class="cls-1" d="M475.06,291.54A40,40,0,0,1,464.11,305a54,54,0,0,1-5.07,3.71,95,95,0,0,1-9.77,4.92L439.42,318c-1.44.66-2.88,1.35-4.31,2.05s-2.86,1.45-4.28,2.12c-1.83.89-3.62,1.81-5.32,2.83a19.22,19.22,0,0,0-4.53,3.64c-.71.91-1.05.62-.8-.57a8.62,8.62,0,0,1,3.53-4.5,46.45,46.45,0,0,1,5.55-3.2l5.53-2.85c3.76-1.86,7.61-3.5,11.45-5.15,2.29-1,4.59-2.08,6.85-3.25a52.37,52.37,0,0,0,6.46-3.88,41.4,41.4,0,0,0,11.39-11.72,26.66,26.66,0,0,0,3.66-9.28,27.94,27.94,0,0,0-1.32-15,30.22,30.22,0,0,0-6.51-9.6c-.57-.63-1.18-1.2-1.8-1.81s-1.05-1-1.44-1.42-.68-.76-.93-1.05a2.84,2.84,0,0,1-.74-1.52,4.23,4.23,0,0,1-.12-.6c0-.26.31-.24.93-.05a8.8,8.8,0,0,1,2.49,1.38,37.77,37.77,0,0,1,4.28,3.67c.66.7,1.28,1.44,1.9,2.19s1.2,1.54,1.71,2.39a30.3,30.3,0,0,1,2.77,5.3,29.26,29.26,0,0,1,1.6,5.83,31,31,0,0,1,.15,9,27.41,27.41,0,0,1-2.45,8.66Z"/><path class="cls-1" d="M444.59,165.59a45.07,45.07,0,0,1,7.92-.19,17.89,17.89,0,0,1,2.1.33c.37.11.76.2,1.11.33l1,.44a13,13,0,0,1,3.52,2.57,11.61,11.61,0,0,1,3.26,7.92,17.48,17.48,0,0,1-1.91,8,19.17,19.17,0,0,1-1.36,2.58l-.74,1.26c-.24.41-.54.78-.81,1.18-.57.77-1.1,1.57-1.69,2.32l-1.85,2.16-.71.81a.45.45,0,0,0,0,.6,7.44,7.44,0,0,0,1.22,1.54,45.16,45.16,0,0,0,3.46,3c2.44,2,5,3.93,7.39,6a63.88,63.88,0,0,1,6.89,6.78,30.93,30.93,0,0,1,5.22,8.28,19.24,19.24,0,0,1,1.46,8.94,21.8,21.8,0,0,1-2.63,8.59,35.73,35.73,0,0,1-7,8.92,57.63,57.63,0,0,1-8.91,6.79c-2,1.23-2,.67-.67-.87s3.8-4.13,6.8-7a37.19,37.19,0,0,0,6.91-8.24,19.09,19.09,0,0,0,2.87-9.81,18.71,18.71,0,0,0-3-9.8,42.29,42.29,0,0,0-7-8.37,104.36,104.36,0,0,0-8.46-7.1c-1.48-1.16-3-2.31-4.45-3.63a14,14,0,0,1-2.11-2.31,4.93,4.93,0,0,1-.47-.84,3.57,3.57,0,0,1-.3-1.14,2.79,2.79,0,0,1,.75-2.14l1.77-2.07.85-1c.27-.34.52-.7.78-1a28.42,28.42,0,0,0,2.08-3.06l.94-1.58.75-1.65a14,14,0,0,0,1.31-6.86,9.27,9.27,0,0,0-9.45-8.17,79.49,79.49,0,0,0-9.27.54,38.17,38.17,0,0,1-9.67,0,12.32,12.32,0,0,1-1.86-.46c-.3-.11-.61-.19-.91-.32l-.89-.43a12.87,12.87,0,0,1-3.07-2.27,39.45,39.45,0,0,1-4.57-5.71,49.25,49.25,0,0,0-4.24-5.58,16.76,16.76,0,0,0-1.22-1.17l-1.37-1-.68-.51-.74-.43c-.5-.27-1-.57-1.49-.83a17.42,17.42,0,0,0-10.13-1.62,16.47,16.47,0,0,0-9,4.42l-1.5,1.67c-.47.57-.86,1.22-1.31,1.83a13.23,13.23,0,0,0-1,1.67c-.28.53-.57,1-.78,1.43-.38.92-.72,1.64-1,2.24a7.31,7.31,0,0,1-1.47,2.43,5.14,5.14,0,0,1-.71.7c-.35.22-.48-.28-.39-1.41a20.12,20.12,0,0,1,.31-2.15c.24-.83.56-1.8.95-2.88a22.52,22.52,0,0,1,6.11-8.49,18.75,18.75,0,0,1,10-4.31,20.35,20.35,0,0,1,10.92,1.89c.85.39,1.64.9,2.46,1.35s1.51,1.09,2.26,1.64a21.61,21.61,0,0,1,3.85,4.06c1.61,2.12,3,4.27,4.49,6.19a21.54,21.54,0,0,0,2.35,2.64,9,9,0,0,0,2.62,1.84,15.13,15.13,0,0,0,6.67,1c2.44,0,4.95-.32,7.52-.57Z"/><path class="cls-1" d="M312.24,442.85a1.86,1.86,0,0,0-.46-.06.26.26,0,0,0-.1,0c-.05.05-.1.12-.17.18a3.3,3.3,0,0,0-.34,1.81,2.5,2.5,0,0,0,.11.76,5,5,0,0,0,.22.75,6.27,6.27,0,0,0,1.37,2.48,9.34,9.34,0,0,0,1,1.06,14,14,0,0,0,1.25.88c.4.19.82.4,1.24.57l1.33.39c.58.12,1.18.19,1.76.3s1.2.11,1.8.23c.37.07.33.35,0,.62a2.85,2.85,0,0,1-1.71.6A11,11,0,0,1,312,450.7a9.91,9.91,0,0,1-2.73-4.38,7.24,7.24,0,0,1-.15-2.94,4.34,4.34,0,0,1,.53-1.51,2.62,2.62,0,0,1,1.45-1.19,3.31,3.31,0,0,1,2,.09,8.21,8.21,0,0,1,1.58.74,26.67,26.67,0,0,1,3.91,3c.95.82,1.94,1.55,2.85,2.39a7.93,7.93,0,0,1,.58.58c.67.77.75,1.16.47,1.66-.06.11-.11.23-.17.32-.23.27-.77.22-1.36-.2s-.88-.63-1.32-.95l-1.25-1.05c-.83-.71-1.66-1.44-2.5-2.11-.63-.5-1.27-1-1.91-1.39a6,6,0,0,0-1.8-.83Z"/><path class="cls-1" d="M321.15,438.06a5.87,5.87,0,0,0-4.5-.74,3.89,3.89,0,0,0-.71.31,2.66,2.66,0,0,0-.43.34c-.16.13-.22.35-.14.79a4.84,4.84,0,0,0,.6,1.4,21.19,21.19,0,0,0,2.15,2.81c.71.81,1.49,1.58,2.24,2.38.48.51,1,1,1.42,1.59a5.17,5.17,0,0,1,1,2c.07.56-.29.45-.69.23a5,5,0,0,1-1.5-1c-.88-1-1.95-1.88-2.95-2.88a26,26,0,0,1-2.86-3.33,11.18,11.18,0,0,1-1.44-2.6,2.91,2.91,0,0,1,1.08-3.48,7.42,7.42,0,0,1,1.61-.73,8.58,8.58,0,0,1,1.66-.27,8.69,8.69,0,0,1,3.16.57,12.53,12.53,0,0,1,3.31,1.83,15.92,15.92,0,0,1,3.78,4.16,13.52,13.52,0,0,1,1.84,4,5.36,5.36,0,0,1,.13,1,2.33,2.33,0,0,1-.18,1.33.88.88,0,0,1-.61.49,1.39,1.39,0,0,1-.38.09c-.4,0-.71-.48-.8-1.18a6.94,6.94,0,0,0-.22-.78,3.59,3.59,0,0,0-.26-.76l-.26-.76-.36-.74a14,14,0,0,0-1.84-2.81,12.66,12.66,0,0,0-3.91-3.2Z"/><path class="cls-1" d="M54.93,441.59a4.92,4.92,0,0,1,1.43-3.06,3.24,3.24,0,0,1,1.92-.81A4.22,4.22,0,0,1,60,438a7,7,0,0,1,1.85,1.1,9.94,9.94,0,0,1,2.9,6.09c.14.95.24,1.89.29,2.83a10,10,0,0,1-.27,3.57c-.11.37-.5.26-.88-.09a2.41,2.41,0,0,1-.78-1.55,30.39,30.39,0,0,0-1-6.44A5.13,5.13,0,0,0,60,440.68a2.43,2.43,0,0,0-1.49-.55.7.7,0,0,0-.46.21,1.79,1.79,0,0,0-.41.67,7.49,7.49,0,0,0-.29,2.62,20.26,20.26,0,0,0,.37,4.34,11.71,11.71,0,0,0,1.21,3c.11.21.25.39.36.6.39.75.4,1.05,0,1.56-.09.11-.18.24-.28.34-.33.34-.9.24-1.42-.34A12,12,0,0,1,55,446.77a24.31,24.31,0,0,1-.19-2.54c0-.42,0-.84,0-1.26v-.64c0-.25,0-.49,0-.74Z"/><path class="cls-1" d="M46.13,450.83A5.07,5.07,0,0,1,45,449.49a3.56,3.56,0,0,1-.48-1.93,4.83,4.83,0,0,1,.15-.95l.16-.42a1.74,1.74,0,0,1,.25-.49,2.64,2.64,0,0,1,1.74-1.25,5,5,0,0,1,2.4.06,13.48,13.48,0,0,1,3.17,1.43,23.8,23.8,0,0,1,2.73,1.91c.75.62,1.52,1.24,2.23,1.91a6.54,6.54,0,0,1,2.2,3.21c.09.45-.38.46-.9.34a2.73,2.73,0,0,1-1.51-.74,33.28,33.28,0,0,0-5.2-4.39,8.72,8.72,0,0,0-3.77-1.49c-.72-.06-.92,0-1.12.26a1.81,1.81,0,0,0-.18.7,1.28,1.28,0,0,0,.2.71,5.11,5.11,0,0,0,2,1.57,19.71,19.71,0,0,0,4.28,1.41c1.16.26,2.33.32,3.53.48.26,0,.52.06.79.12,1,.21,1.33.52,1.31,1.15a1.5,1.5,0,0,1,0,.43c-.16.43-.51.64-1.2.64a26.18,26.18,0,0,1-6.58-.94,14.28,14.28,0,0,1-5.1-2.35Z"/><path class="cls-1" d="M44.57,454.94a20.7,20.7,0,0,1-2.29-1.18,11.67,11.67,0,0,1-1.21-.85,4.26,4.26,0,0,1-1.23-1.54,2.22,2.22,0,0,1-.16-1.3,1.87,1.87,0,0,1,.71-1.1,2.25,2.25,0,0,1,.53-.29,3.18,3.18,0,0,1,.58-.23l.64-.12.32-.06h.26a7.09,7.09,0,0,1,1.83.21,16.55,16.55,0,0,1,3.09,1.06c.86.4,1.74.77,2.56,1.22a7.51,7.51,0,0,1,2.89,2.33c.22.36-.18.55-.7.63a2.6,2.6,0,0,1-1.68-.2,44.54,44.54,0,0,0-5.94-2.86,5.41,5.41,0,0,0-.94-.24l-.47-.06H43a.93.93,0,0,0-.24,0,.53.53,0,0,0-.17,0,.54.54,0,0,0-.3.19.33.33,0,0,0,0,.38,1.24,1.24,0,0,0,.32.37,11,11,0,0,0,1.82,1.2,19.39,19.39,0,0,0,2.64,1.16,26.07,26.07,0,0,0,4.26,1.17,22.52,22.52,0,0,0,3.38.25,5.94,5.94,0,0,1,.73,0c.92.14,1.2.3,1.37.81a2.67,2.67,0,0,1,.11.34c.07.37-.33.67-1.05.8a10.79,10.79,0,0,1-3.26.05,23.74,23.74,0,0,1-3.3-.57A30.35,30.35,0,0,1,44.55,455Z"/><path class="cls-1" d="M155.68,224.53q0,1.62.09,3.24c0,.39.07.78.09,1.18.08,1.39,0,2.79.07,4.19,0,.62.07,1.23.11,1.85a12.61,12.61,0,0,1,0,2.38c-.05.49-.62-.14-.74-1-.2-1.57-.37-3.16-.52-4.77-.09-1-.22-2-.33-3s-.18-2.17-.26-3.26l-.13-2-.18-3.06c-.05-.79-.23-1.57-.26-2.37,0-.18,0-.35,0-.53,0-.68.2-.89.66-1a1.67,1.67,0,0,1,.31-.05c.35,0,.61.29.68.73a22.36,22.36,0,0,1,.37,4.16l.09,3.24Z"/><path class="cls-1" d="M184.28,125c.73,2.29,1.75,4.66,3.71,6.18s4.7,1.61,7.15.85c1.53-.48.88-2.9-.66-2.42-1.88.59-3.77.72-5.3-.69a10.27,10.27,0,0,1-2.49-4.59c-.48-1.53-2.9-.87-2.41.67Z"/><path class="cls-1" d="M207,124.07c2.16,3.25,5.73,6.52,9.91,5,3.59-1.33,5.18-5.37,5.29-8.93a1.25,1.25,0,0,0-2.5,0c-.08,2.37-.94,5.23-3.21,6.39-3,1.55-5.8-1.4-7.33-3.7-.88-1.34-3.05-.09-2.16,1.26Z"/><path class="cls-1" d="M192.1,145.44c-.12-.26-.27-.52-.36-.77l-.23-.78a5.82,5.82,0,0,1-.24-1.62,15.59,15.59,0,0,1,.33-2.9c.11-.68.23-1.34.39-2,.61-2.3,1.4-4.5,2.19-6.69.35-1,.65-2,.93-2.94l.51-1.9a9.25,9.25,0,0,1,.73-1.78c.18-.36.56-.25.91.19a2.62,2.62,0,0,1,.58,2,69.75,69.75,0,0,1-2.68,7.6,29.08,29.08,0,0,0-1.37,4.67,21.51,21.51,0,0,0-.49,2.57,10.66,10.66,0,0,0-.09,1.25l0,.57c0,.19.1.38.14.57a3.05,3.05,0,0,0,1.63,2.13,6.62,6.62,0,0,0,4.47-.09,20.23,20.23,0,0,0,3.43-1.54c.25-.12.49-.27.75-.38a2.31,2.31,0,0,1,1.11-.27,1.12,1.12,0,0,1,.7.3c.09.09.2.16.27.24.23.28,0,.77-.6,1.34-.47.36-1,.73-1.48,1.06a17.54,17.54,0,0,1-1.67.87,11.35,11.35,0,0,1-3.86,1,7.25,7.25,0,0,1-3.34-.35,5.54,5.54,0,0,1-1.63-.93,5.28,5.28,0,0,1-1.12-1.45Z"/><path class="cls-1" d="M202.7,157.2c3.8,1.85,8-.67,10.08-3.92.88-1.35-1.28-2.61-2.16-1.26-1.29,2-4.19,4.22-6.65,3-1.45-.7-2.71,1.46-1.27,2.16Z"/><path class="cls-1" d="M205.23,108c-.06-.36,0-.56.19-.66s.16-.19.25-.28.12-.17.21-.2a2.29,2.29,0,0,0,.64-.53,4.6,4.6,0,0,1,1.57-.83,6.53,6.53,0,0,1,1.53-.4,12.49,12.49,0,0,0,1.73-.37c.19-.18,1.16-.13,1.42-.27a.58.58,0,0,1,.32,0c.45,0,.88-.39,1.34-.35.28,0,.56,0,.84,0a1.41,1.41,0,0,1,.2,0c.71.17,1.43.06,2.14.2l.42.11a.86.86,0,0,0,.27,0,2.67,2.67,0,0,1,1.45.36c.06,0,.11.09.18.07.4-.13.71.18,1.07.21a1.85,1.85,0,0,1,.33.12c.09,0,.17.1.26.1a5.94,5.94,0,0,1,1.17.31s.05,0,.08,0a1.52,1.52,0,0,1,1.14.63.75.75,0,0,0,.73.28c.07,0,.13,0,.16,0a3.35,3.35,0,0,0,.5.79s0,0,0,.06a3.92,3.92,0,0,1-.26.71c-.05.09-.88,1.41-1,1.47a.56.56,0,0,1-.15.1c-.13,0-.28.13-.49.42s-.2.2-.25.19a5.11,5.11,0,0,0-1.16-.6,2.6,2.6,0,0,0-.54-.17,23.3,23.3,0,0,0-2.72-.75,1.24,1.24,0,0,1-.47-.21.9.9,0,0,0-.44-.19c-.27,0-.54,0-.8-.09l-1.12-.14a17.16,17.16,0,0,0-1.89-.14s0,0-.06,0a4,4,0,0,1-1.59.25c-.34,0-.65.15-1,.18s-.63.16-1,.2a3.24,3.24,0,0,0-.81.22l-.12.05a7.54,7.54,0,0,0-2.49.75s-.12,0-.22-.08-.17-.08-.27-.14-.22-.2-.3-.24-.15,0-.23,0a.74.74,0,0,1-.31-.31Z"/><path class="cls-1" d="M197.39,110.11c-.27.24-.41.31-.49.25s-.15,0-.21,0-.12,0-.15,0a.5.5,0,0,0-.45,0c-.29.11-1.55-.45-1.71-.5s-.87-.27-1-.16-.69-.08-.87,0-.12,0-.19,0c-.26-.11-.56.32-.83.25a2.21,2.21,0,0,0-.51,0s-.08,0-.12,0c-.44-.17-.88,0-1.33,0l-.28-.05c-.06,0-.12,0-.17,0a1.31,1.31,0,0,1-1-.06s-.09-.06-.12,0c-.23.22-.48,0-.71.09a1,1,0,0,1-.24,0c-.06,0-.12,0-.18,0-.25.13-.53,0-.79.09H186c-.27.21-.58,0-.88-.14s-.36-.18-.53,0-.06,0-.1,0a1.67,1.67,0,0,0-.28-.22c-.1-.09-.19-.05-.29-.22l0-.06a6.45,6.45,0,0,1-.11-.68v-.74c0-.37,0-.79,0-.83a.52.52,0,0,1,.06-.15.89.89,0,0,0,.16-.53c0-.16.06-.24.1-.25a1.82,1.82,0,0,0,.52-.08,2.28,2.28,0,0,1,.52,0,1.69,1.69,0,0,0,.45-.07c.75-.11,1.52-.14,2.29-.19a.8.8,0,0,1,.41.1.8.8,0,0,0,.39.09c.21,0,.43-.06.65-.07s.62,0,.94,0q.8,0,1.59.09s0,0,.06,0c.34-.29,1.34-.07,1.41,0a9.51,9.51,0,0,1,1.79.31,5.54,5.54,0,0,0,.8.21.5.5,0,0,1,.12,0,14.74,14.74,0,0,1,2.22,1.38s.06.11,0,.24,0,.19,0,.3-.1.27-.11.36a.66.66,0,0,0,0,.21.93.93,0,0,1-.21.39Z"/><path class="cls-1" d="M235.56,150.93c-.31.64-.6,1.28-.89,1.93-.1.24-.15.49-.25.73a19.11,19.11,0,0,0-.94,2.56,6,6,0,0,0-.19,1.18,5.13,5.13,0,0,1-.14,1.51c-.05.16-.4.15-.76,0s-.72-.41-.74-.74a8,8,0,0,1,.5-3.34,18.26,18.26,0,0,0,.48-2,19.47,19.47,0,0,1,.73-2.11l.51-1.26c.25-.64.55-1.26.75-1.91s.21-1.05.37-1.55a2.14,2.14,0,0,1,.09-.34c.15-.41.45-.43.93-.31l.33.08a1.05,1.05,0,0,1,.68.79,7.8,7.8,0,0,1-.08,1.46,12.56,12.56,0,0,1-.48,1.34c-.28.64-.56,1.3-.84,1.95Z"/><path class="cls-1" d="M204.94,185c.07-.13.23,0,.4.27a1.23,1.23,0,0,1,.15.43c0,.1,0,.2,0,.27a4.28,4.28,0,0,0-.35.51,1.31,1.31,0,0,1-.25.33,5.62,5.62,0,0,0-.54.7.53.53,0,0,1-.15.15,1.23,1.23,0,0,0-.45.58.14.14,0,0,0,0,.13,1.92,1.92,0,0,1-.37.76c-.19.15-.35.33-.53.5,0,0,0,.07-.09.07s-.17.07-.22.13a.9.9,0,0,1-.21.23.48.48,0,0,1-.22,0c-.08,0-.26-.11-.27-.13s-.15-.09-.23-.13l-.08,0a2.37,2.37,0,0,1-.1-.76l.14-.43c.07-.21.15-.45.16-.5s.06-.08.11-.12l.27-.72c.08-.12.12-.28.31-.33,0,0,0,0,.06-.07a2.9,2.9,0,0,1,.51-.6c.09-.1.17-.22.26-.32l.07,0,.08,0c.22-.25.5-.44.75-.69.05-.07.45-.15.53-.21S204.92,185,204.94,185Z"/><path class="cls-1" d="M235.15,192.43c-.05.07,0-.08-.07-.38a1.17,1.17,0,0,1,0-.43.76.76,0,0,1,.22-.18,2,2,0,0,1,1,.23,1.29,1.29,0,0,1,.43.36,5.78,5.78,0,0,1,.58.84.36.36,0,0,1,.06.2,1.58,1.58,0,0,0,.23.67.12.12,0,0,0,.08.09c.13,0,.31.61.28.7a3.56,3.56,0,0,1-.13.65s0,.06-.05.1-.09.15-.1.21a.82.82,0,0,1-.06.26c0,.05-.07.1-.11.15s-.18,0-.2,0-.12,0-.18,0H237s-.5-.34-.54-.38a2,2,0,0,1-.23-.28c-.08-.15-.18-.31-.2-.34s0-.07,0-.11-.27-.45-.27-.47-.1-.17,0-.31a0,0,0,0,0,0-.06,2.26,2.26,0,0,1-.14-.49,1,1,0,0,0-.11-.23s0,0,0,0,0,0,0-.06-.16-.33-.29-.4-.05-.22-.08-.2S235.18,192.4,235.15,192.43Z"/><path class="cls-1" d="M242.18,186.45c-.11,0-.09-.15,0-.42a.92.92,0,0,1,.2-.31.85.85,0,0,1,.26-.05,3.55,3.55,0,0,1,.85.38,1.75,1.75,0,0,1,.5.43,7.38,7.38,0,0,1,.76,1,.71.71,0,0,1,.11.25,2.87,2.87,0,0,0,.34.87s0,.09.1.12a2.38,2.38,0,0,1,.38.93c0,.27,0,.53,0,.8,0,0,0,.07,0,.12s-.08.18-.07.26a1.93,1.93,0,0,1,0,.34.72.72,0,0,1-.12.19.4.4,0,0,1-.26.08c-.07,0-.15,0-.23.07l-.08,0a3.38,3.38,0,0,1-.61-.54s-.39-.82-.44-.9a.19.19,0,0,1,0-.15s-.33-.63-.34-.65-.12-.25,0-.42a.1.1,0,0,0,0-.09,5.11,5.11,0,0,1-.22-.66,3,3,0,0,0-.16-.31s0,0,0-.06,0-.06,0-.09a2.56,2.56,0,0,0-.48-.64s-.16-.33-.23-.37S242.23,186.44,242.18,186.45Z"/><path class="cls-1" d="M119.75,81.66c-.19,0-.17-.25,0-.73a2.49,2.49,0,0,1,.38-.6,2.68,2.68,0,0,1,.38-.19c.06,0,.79.12,1,.12a2.14,2.14,0,0,1,.67.18c.44.18.9.32,1.36.47a.72.72,0,0,1,.29.17,2.2,2.2,0,0,0,1,.46c.07,0,.12,0,.21,0a3.1,3.1,0,0,1,1.27.32c.29.25.59.45.88.67,0,0,.11,0,.12.13s.14.24.24.3a1.61,1.61,0,0,1,.38.28,1,1,0,0,1,.11.32A.9.9,0,0,1,128,84c-.1.07-.11.23-.16.36a.5.5,0,0,1,0,.13,4.23,4.23,0,0,1-1.07.29l-.62-.12a7.23,7.23,0,0,0-.73-.11c-.07,0-.13-.07-.18-.12s-1-.14-1.06-.16c-.19-.08-.41-.07-.55-.31a.12.12,0,0,0-.11-.06,4.91,4.91,0,0,1-1-.44,4.76,4.76,0,0,0-.53-.19s-.05,0-.08-.08a.23.23,0,0,0-.11-.08c-.42-.15-.79-.42-1.24-.54-.11,0-.45-.45-.57-.49S119.83,81.64,119.75,81.66Z"/><path class="cls-1" d="M137.47,55c-.19-.17,0-.4.52-.67a1.6,1.6,0,0,1,.74-.16,2.82,2.82,0,0,1,.45.27,14.41,14.41,0,0,1,.74,1.57,4.31,4.31,0,0,1,.33,1.15c.13.8.27,1.58.38,2.37a1.89,1.89,0,0,1,0,.53,5.11,5.11,0,0,0,.08,1.79.38.38,0,0,0,.11.29,6.44,6.44,0,0,1,.3,1.93c-.1.52-.15,1-.21,1.56,0,.08,0,.15-.05.23a.46.46,0,0,0-.14.49,3.82,3.82,0,0,1,0,.67,1.28,1.28,0,0,1-.21.37c-.08.11-.42.12-.46.09s-.27,0-.41.07l-.14,0a5.81,5.81,0,0,1-.92-1.32l-.54-2.1a.85.85,0,0,1,0-.35s-.34-1.53-.34-1.59c0-.31-.13-.6,0-.93a.31.31,0,0,0,0-.19,10.33,10.33,0,0,1-.08-1.57,5.47,5.47,0,0,0-.1-.8.8.8,0,0,1,0-.15.55.55,0,0,0,0-.18,12.51,12.51,0,0,0-.29-1.85c0-.14.06-.86,0-1S137.55,55.09,137.47,55Z"/></g></svg>