<svg xmlns="http://www.w3.org/2000/svg" width="520" height="520" viewBox="0 0 520 520"><defs><style>.cls-1{opacity:0.3;}.cls-2{fill:#fff;}</style></defs><title>Notioly New september</title><g id="_162.Target" data-name="162.Target"><g class="cls-1"><path class="cls-2" d="M93.11,134C83,151.39,77,171.34,76.94,191.48a108.47,108.47,0,0,0,16.78,57.69,112.91,112.91,0,0,0,26.36,28.58,109.22,109.22,0,0,0,14.62,9.4,107.71,107.71,0,0,0,15.84,7c14,4.93,28.79,6.92,43.52,7,4.59,0,4.13,1.41.19,2.89a22.92,22.92,0,0,1-3.59,1.07c-1.39.29-3,.57-4.73.79s-3.65.24-5.68.27-4.16-.21-6.38-.45a119.21,119.21,0,0,1-44.55-15.32,115.67,115.67,0,0,1-35-31.56C83.08,243.58,75,225,72.64,205.71l-.26-2-.16-2-.31-4c-.06-2.66-.21-5.31-.1-8s.24-5.3.43-8c.11-1.32.3-2.63.44-3.95l.25-2,.32-2a113.71,113.71,0,0,1,3.57-15.47,122.62,122.62,0,0,1,5.51-14.86A133.25,133.25,0,0,1,124.77,90.9a127.25,127.25,0,0,1,47-21.4,113.24,113.24,0,0,1,22.35-2.71c3.32-.06,6.58,0,9.93.24a62.85,62.85,0,0,1,13,2.2,12.82,12.82,0,0,1,5.34,2.71,9.93,9.93,0,0,1,1.42,1.39c.41.68-.64.91-2.84.75s-5.58-.63-9.91-1.15a114.33,114.33,0,0,0-39.19,2,117.24,117.24,0,0,0-37.1,15.57,126.85,126.85,0,0,0-41.49,43.58Z"/></g><g class="cls-1"><path class="cls-2" d="M124.89,152.81a75.24,75.24,0,0,0-9.79,38.44,71.49,71.49,0,0,0,2.05,14.48,74.61,74.61,0,0,0,4,12.29A78.37,78.37,0,0,0,145,248.57c1.51,1.21,3.13,2.29,4.74,3.38s3.29,2.06,5,3a67.72,67.72,0,0,0,10.6,4.64c9.35,3.23,19.26,4.25,29.08,4.06,3.06-.07,2.88,1.33.29,2.88s-7.75,3.09-13.89,2.44a76.1,76.1,0,0,1-30.59-10.31,80.26,80.26,0,0,1-23.79-21.67,97.52,97.52,0,0,1-9.91-16.89,78.13,78.13,0,0,1-5.76-18.93,76.18,76.18,0,0,1-.27-21.64,80.75,80.75,0,0,1,5.66-20.8,88.37,88.37,0,0,1,45.37-46.36A82.45,82.45,0,0,1,191.2,105c2.26-.1,4.49-.15,6.77,0a36.13,36.13,0,0,1,8.87,1.42,6.78,6.78,0,0,1,3.56,2.22,6.32,6.32,0,0,1,.9,1.22c.46,1.31-2.93,1.16-8.7.65a79.27,79.27,0,0,0-50.47,13A83.67,83.67,0,0,0,125,152.86Z"/></g><path class="cls-2" d="M316.4,279.45s2.44-2.16,1.25-4-2,2.78-2,2.78Z"/><path class="cls-2" d="M335.3,235c-9.47-2.36-16.07-12.24-16.07-12.24l13.47,8.5Z"/><path class="cls-2" d="M297.72,247s10.64-1.75,12.7-6.8l.86,5.25-12.6,3Z"/><path class="cls-2" d="M307.54,265.33s7.42,0,11.06-4.29l-1.72-1.2Z"/><path class="cls-2" d="M409.08,375.47c-12.88,28.34-54.18,42-54.18,42s13.3,29.94,21.65,35.48c0,0,10.94-2.38,17.69-16,6.05-12.2,19.78-7.79,26.74-12.06,10.58-6.49,11.26-19.83,10.46-20.73S409.08,375.47,409.08,375.47Z"/><path class="cls-2" d="M365.36,238.28l8,2.75,2.93.93c3.43,1.17,6.85,2.35,10.29,3.46,1.53.49,3.08.92,4.62,1.32l5.87,1.45c.28.07.34.19.35.37a.79.79,0,0,1-.46.62,4.05,4.05,0,0,1-2.92.32A113.07,113.07,0,0,1,382,245.72c-2.37-.89-4.9-1.59-7.35-2.4l-8.06-2.73-5-1.69c-2.51-.84-5-1.72-7.52-2.51-1.94-.62-3.88-1.13-5.82-1.68l-1.28-.36c-1.59-.49-2.05-.77-2.24-1.35a2.09,2.09,0,0,1-.11-.39c0-.41.7-.49,1.89-.21,3.53.82,7.15,2,10.78,3.14l8.08,2.69Z"/><path class="cls-2" d="M367.43,242.46c2.36,1,4.73,2.09,7.11,3.08l2.63,1c3.07,1.28,6.14,2.54,9.25,3.72,1.37.53,2.78,1,4.18,1.43,1.78.55,3.64,1,5.32,1.65a.52.52,0,0,1,.15.07l.05.05,0,0s0,0,0,.06a1.29,1.29,0,0,0,.06.25c.05.14.08.2.07.18s-.08-.22-.05-.1a.34.34,0,0,1,0,.15,1.09,1.09,0,0,1-.36.29,3.68,3.68,0,0,1-2.7.19,99.19,99.19,0,0,1-10.9-4.07c-2.13-.94-4.42-1.73-6.62-2.62q-3.63-1.49-7.22-3.06l-4.42-2-6.64-3c-1.72-.77-3.43-1.45-5.14-2.2l-1.12-.5c-1.38-.66-1.76-1-1.83-1.58a1.84,1.84,0,0,1,0-.4c0-.4.74-.39,1.78,0,3.08,1.21,6.24,2.65,9.42,4.09,2.37,1.06,4.75,2.14,7.14,3.17Z"/><path class="cls-2" d="M438.08,265.33s-5.41-19.32-24.26-20.56c0,0-10.82.59-17.62,6.56Z"/><path class="cls-2" d="M312.59,235a44.7,44.7,0,0,0,2,9.08c.94,3,2.08,6.05,3.27,9.07,2.38,6,5,12.08,7.15,18.41a56.09,56.09,0,0,1,3.29,14.49,26,26,0,0,1,0,2.79,13.34,13.34,0,0,1-.09,1.41l-.16,1.5c-.25.94-.39,1.14-.54,1.63l-.44,1.29c-.28.87-.55,1.75-.8,2.64-.49,1.77-.95,3.55-1.32,5.36a77.74,77.74,0,0,0-1.52,10.95,67.19,67.19,0,0,0,2,21.93,58.85,58.85,0,0,0,3.92,10.2c.42.81.88,1.6,1.32,2.4l.67,1.19.74,1.14c.51.76,1,1.53,1.51,2.27l1.64,2.17A66.23,66.23,0,0,0,345,365a122.89,122.89,0,0,0,11.39,8.26c2.42,1.66,1.85,2-.7,1.35-.64-.16-1.41-.36-2.28-.62a15.62,15.62,0,0,1-2.82-1.11c-1-.47-2.09-1-3.22-1.62S345.1,369.79,344,369a69.08,69.08,0,0,1-11-10.34,59.16,59.16,0,0,1-8.06-12.9,63.85,63.85,0,0,1-5.51-29.62,95.77,95.77,0,0,1,1.5-12.77c.39-2.12.86-4.24,1.41-6.34.28-1.05.58-2.1.9-3.14.15-.52.33-1,.5-1.56l.27-.78.12-.35a.53.53,0,0,0,0-.12l.12-1.14c.06-.4,0-.81.06-1.23.05-.82,0-1.65,0-2.48a41.21,41.21,0,0,0-.7-5c-1.26-6.23-3.66-12.34-6.09-18.44s-5.08-12.21-7-18.66a38.41,38.41,0,0,1-1.87-12.48,17.84,17.84,0,0,1,1.48-6.39c.24-.51.54-1,.81-1.51a16.11,16.11,0,0,1,1.08-1.42c.22-.21.47-.41.7-.61a3.71,3.71,0,0,1,.75-.55l.84-.45a4.72,4.72,0,0,1,.9-.29,9.06,9.06,0,0,1,5.29.36,20.15,20.15,0,0,1,4.38,2.19,45,45,0,0,1,3.86,2.77,33.78,33.78,0,0,1,3.51,3.25A41.38,41.38,0,0,1,340,240.76c.62,1.45,1.16,2.88,1.7,4.33,3.29,9,5.61,18.08,8.32,27,.6,2,1.26,3.84,1.92,5.76a44.76,44.76,0,0,0,3.07,7.1c.78,1.42,1.25,2.15,1.66,2.94.17.39.55.73.69,1s0,.38-.32.41a2.65,2.65,0,0,1-.71,0,6.76,6.76,0,0,1-1-.37,8.68,8.68,0,0,1-2.41-1.89,17.92,17.92,0,0,1-2.32-3.34,67.37,67.37,0,0,1-4.77-12.17c-1.27-4.14-2.42-8.32-3.64-12.49s-2.49-8.31-4-12.36c-.75-2-1.52-4.05-2.41-5.86a38.77,38.77,0,0,0-3.2-5.31,34.32,34.32,0,0,0-6.24-6.65,40.62,40.62,0,0,0-3.77-2.68,16.42,16.42,0,0,0-3.81-1.81,4.18,4.18,0,0,0-3,0,4.71,4.71,0,0,0-2,2.32,14.07,14.07,0,0,0-1.09,4,20.05,20.05,0,0,0,0,4.38Z"/><path class="cls-2" d="M381,225.57a243.3,243.3,0,0,1,14.58,21.94c2.24,3.77,4.4,7.59,6.44,11.48,1,2,2,3.93,2.94,5.95.46,1,.92,2,1.33,3.14a15.21,15.21,0,0,1,.56,1.85c.14.63.2,1.21.3,1.82a73.86,73.86,0,0,1,.13,9.84c-.12,3.21-.33,6.4-.61,9.57-1,11.18-2.25,22.28-3.19,33.39-.47,5.55-.85,11.11-1,16.65-.08,2.77-.11,5.54,0,8.29a51.59,51.59,0,0,0,.81,8.11c.11.58.27,1.14.4,1.71s.37,1.07.55,1.61c.47,1.1,1,2.23,1.5,3.35,1.06,2.21,2.16,4.41,3.36,6.56a145.32,145.32,0,0,0,7.77,12.48c3.58,5.15,7.5,10.08,11.51,14.94s8.25,9.53,12.11,14.55c2.46,3.08,1.81,3-1,1-1.39-1-3.4-2.36-5.64-4.22a64.91,64.91,0,0,1-7-7.05,186.8,186.8,0,0,1-12.08-15.42,149.81,149.81,0,0,1-10.26-16.82c-.73-1.49-1.48-2.95-2.17-4.45l-1-2.26c-.17-.39-.34-.74-.5-1.15l-.48-1.33c-.31-.89-.46-1.74-.68-2.61s-.31-1.71-.42-2.56c-.21-1.69-.34-3.36-.43-5a170.25,170.25,0,0,1,.57-19.73c.61-7.81,1.34-15.74,2.06-23.7s1.45-16,1.91-23.85c.12-2.16.21-4.33.22-6.47a34.3,34.3,0,0,0-.39-6.19c0-.24-.11-.43-.16-.64a3.62,3.62,0,0,0-.21-.67c-.18-.48-.37-1-.58-1.45-.42-1-.87-2-1.34-2.92-.93-1.94-1.92-3.87-2.95-5.78-4.12-7.65-8.63-15.14-13.47-22.38-3-4.45-6.1-8.81-9.47-12.94a70.91,70.91,0,0,0-5.31-5.89,19.2,19.2,0,0,0-6-4.34l-.57-.13-.26-.08-.39-.13-.35-.12a9.31,9.31,0,0,0-1.29-.38c-.93-.25-1.93-.45-2.92-.66-2-.39-4-.75-6-1.1l-12.08-2c-4-.67-8.07-1.33-12.09-2.08-2-.37-4-.77-6-1.24-1-.24-2.08-.55-3-.81a27.17,27.17,0,0,0-2.85-.59,18.82,18.82,0,0,0-4.42-.18,7.65,7.65,0,0,0-3.8,1.23,3.94,3.94,0,0,0-1.6,3.12,6.51,6.51,0,0,0,.88,3.73c1.34,2.33,3.81,4.11,6.38,5.52a45.09,45.09,0,0,0,8.33,3.41,75.32,75.32,0,0,0,7.77,1.92c4.92,1,8.2,1.26,10.48,1.52a28.17,28.17,0,0,1,4.72.81c.51.17,1.19.25,1.53.4s.26.31-.09.55a6.33,6.33,0,0,1-2,.78,27.55,27.55,0,0,1-8.83.45,71.52,71.52,0,0,1-17-3.54,40.92,40.92,0,0,1-8.24-3.79,23.75,23.75,0,0,1-3.85-2.91,14.34,14.34,0,0,1-3.07-4.28,9.75,9.75,0,0,1-.7-5.69l.12-.73c.07-.25.17-.5.26-.75a5.7,5.7,0,0,1,.7-1.45,5.54,5.54,0,0,1,1-1.29l.6-.57a5.75,5.75,0,0,1,.64-.46A11.41,11.41,0,0,1,311,200.7a22.11,22.11,0,0,1,5,.15,29.42,29.42,0,0,1,4.72,1c1.26.36,2.64.68,4,1,2.82.58,5.71,1.06,8.59,1.56,8.61,1.46,17.25,2.67,26,4.38l1.68.37c.57.13,1.17.3,1.76.45.32.1.79.29,1.16.44.07,0-.29-.09-.35-.1l.6.14a9.66,9.66,0,0,1,2.09.76c.6.32,1.16.65,1.71,1s1,.72,1.5,1.09l1.38,1.15,1.29,1.19a91.56,91.56,0,0,1,8.9,10.23Z"/><path class="cls-2" d="M357.06,242.42c-.85-1.09-1.64-2.22-2.44-3.33-.28-.41-.64-.77-.91-1.19-.95-1.49-1.84-3-2.69-4.54-.38-.68-.81-1.33-1.24-2a7.8,7.8,0,0,1-1.4-2.62c-.08-.31.5-.57,1.17-.65s1.46,0,1.76.44a33.36,33.36,0,0,1,3,5,17.41,17.41,0,0,0,2.09,2.91c.79,1.05,1.61,2.09,2.45,3.11.52.62,1,1.26,1.6,1.84A23.75,23.75,0,0,0,363,244a16.15,16.15,0,0,0,2.4,1.48c.18.1.37.18.55.29.64.4.7.72.35,1.51a5.22,5.22,0,0,1-.24.54,1.2,1.2,0,0,1-1.48.65,13.44,13.44,0,0,1-4.74-3,26.69,26.69,0,0,1-2.88-3Z"/><path class="cls-2" d="M367.84,257.2a28.85,28.85,0,0,0,.68,2.89c.09.35.28.66.38,1a28.48,28.48,0,0,0,1.28,3.63,10.21,10.21,0,0,0,.85,1.47,6.23,6.23,0,0,1,1.11,1.88c.05.24-.43.56-1,.74s-1.3.22-1.6-.12a10.33,10.33,0,0,1-1.38-2,11.81,11.81,0,0,1-.85-2.26,27.19,27.19,0,0,0-1.11-2.69c-.37-1-.67-2-.94-3.05-.17-.63-.31-1.26-.46-1.9-.24-.95-.36-1.94-.61-2.88-.17-.74-.43-1.45-.6-2.19a3.72,3.72,0,0,1-.11-.48c-.08-.62.16-.85.71-1,.12,0,.25-.1.38-.13a1.11,1.11,0,0,1,1.13.49,12.26,12.26,0,0,1,1.57,3.69c.25.95.41,1.92.65,2.88Z"/><path class="cls-2" d="M289.73,242.54a9,9,0,0,1-.7-4.17,6,6,0,0,1,1.92-4.32,9.83,9.83,0,0,1,2.42-1.78,23.17,23.17,0,0,1,4.44-1.53c1.47-.36,2.91-.69,4.35-.94,1.28-.24,2.54-.56,3.76-.91a35.88,35.88,0,0,1,4.67-1.26c.5-.07.7.6.54,1.41a2.94,2.94,0,0,1-1.66,2.13,49.08,49.08,0,0,1-4.91,1.49c-.82.21-1.63.4-2.45.57l-2.45.4a15,15,0,0,0-5.3,2.06,4.16,4.16,0,0,0-1.67,1.71,2.21,2.21,0,0,0-.15.5,6.56,6.56,0,0,0-.05.67,4.1,4.1,0,0,0,0,.7,3.43,3.43,0,0,0,.08.71,7.44,7.44,0,0,0,1.43,3.29,8.24,8.24,0,0,0,4.78,3,10.86,10.86,0,0,0,4.47-.1c.33-.06.64-.16,1-.2a2.67,2.67,0,0,1,1.34.06,1.88,1.88,0,0,1,.78.8,5.21,5.21,0,0,1,.29.49.87.87,0,0,1-.11.88,2.21,2.21,0,0,1-1,.86,11.1,11.1,0,0,1-4.87.82,13.05,13.05,0,0,1-5.2-1.31,12.36,12.36,0,0,1-5.79-5.95Z"/><path class="cls-2" d="M293.44,265a14.37,14.37,0,0,1-4.87-3.11,8,8,0,0,1-2.51-6,6,6,0,0,1,.83-2.59,6.29,6.29,0,0,1,1.59-1.81,19,19,0,0,1,6.28-2.79c2.07-.57,4.11-1,6.13-1.46,1.79-.4,3.56-.88,5.25-1.43a32.07,32.07,0,0,0,3.12-1.21,15,15,0,0,0,2.61-1.39c.36-.26,1.13,0,1.31,1.12a3.67,3.67,0,0,1-2,3.41c-4.81,2.36-9.48,3-14.07,4a17,17,0,0,0-3.92,1.3,8.33,8.33,0,0,0-2.86,2,2,2,0,0,0-.47,1.16c0,.12,0,.22,0,.35s.06.25.08.38.21.52.29.79a7,7,0,0,0,2.81,2.73,13.78,13.78,0,0,0,5.13,1.67,21.34,21.34,0,0,0,8.5-.7,17.25,17.25,0,0,0,3.1-1.23c.5-.23,1-.45,1.5-.7l1.46-.8c.42-.24.83-.48,1.28-.69,1.64-.8,2.3-.79,3.13-.13a5.34,5.34,0,0,1,.57.44c.52.55.15,1.47-.95,2.45-.42.36-.83.73-1.27,1.07s-.93.61-1.4.9-1,.59-1.47.85-1,.49-1.55.72a29,29,0,0,1-6.81,1.73,24.58,24.58,0,0,1-10.84-1Z"/><path class="cls-2" d="M296.61,278.85a5.46,5.46,0,0,0-.77,2.95,1.75,1.75,0,0,0,.41,1c.09.18.28.29.42.45a4,4,0,0,0,.61.37,6.67,6.67,0,0,0,2.38.48,11.49,11.49,0,0,0,4.84-.67c.4-.12.77-.32,1.16-.48s.73-.37,1.12-.64c.78-.47,1.52-1,2.26-1.55a19.55,19.55,0,0,0,3.46-3.4,25,25,0,0,0,1.73-2.52c.26-.43.5-.87.78-1.28s.6-.83.88-1.26.95-.29,1.41.51a4.19,4.19,0,0,1,.54,1.59,2.91,2.91,0,0,1-.31,2,22.44,22.44,0,0,1-4.39,5.74,22.76,22.76,0,0,1-2.74,2.27,20.33,20.33,0,0,1-3.2,1.84,23.13,23.13,0,0,1-4.38,1.43,12,12,0,0,1-4.72.16,9,9,0,0,1-2.62-.89,6.64,6.64,0,0,1-2.26-1.94,5.82,5.82,0,0,1-1.07-2.84,8,8,0,0,1,.3-2.76,17.48,17.48,0,0,1,2.85-5.28,47,47,0,0,1,5.93-6.26,35.07,35.07,0,0,1,5.13-4.18,6.93,6.93,0,0,1,1.31-.72c1.75-.73,2.56-.52,3.07,0a1.93,1.93,0,0,1,.32.32c.12.18,0,.39-.21.66a6.33,6.33,0,0,1-1,1c-1.31,1.25-2.72,2.41-4,3.76s-2.82,2.49-4.14,3.84a26.39,26.39,0,0,0-5,6.38Z"/><path class="cls-2" d="M317.39,282.06c.06.69.06,1.41.18,2.12,0,.26.17.49.21.75a26.39,26.39,0,0,0,.59,2.83,8.39,8.39,0,0,0,.43,1.22,4,4,0,0,1,.5,1.58c0,.19-.38.34-.83.4s-1,0-1.21-.25a10.55,10.55,0,0,1-1-1.42,4.32,4.32,0,0,1-.5-1.68,13,13,0,0,0-.71-2,15.92,15.92,0,0,1-.53-2.37c-.07-.49-.1-1-.16-1.48-.06-.74-.07-1.49-.17-2.2-.11-.54-.23-1.1-.35-1.66a1.46,1.46,0,0,1,0-.36c.05-.46.24-.61.83-.72l.39-.08a1.19,1.19,0,0,1,1.08.43,4.91,4.91,0,0,1,1.12,2.83c.07.7.11,1.4.21,2.09Z"/><path class="cls-2" d="M359.94,387.65l2,4.75c.25.58.58,1.1.83,1.68.84,2,1.69,4.07,2.66,6a26.36,26.36,0,0,0,1.44,2.54,16,16,0,0,1,1.78,3.28c.12.38-.37.63-1,.65a2.4,2.4,0,0,1-1.95-.73,26.57,26.57,0,0,1-3.86-6.7c-.58-1.44-1.5-2.77-2.23-4.17s-1.57-3.1-2.29-4.68l-1.33-2.9c-.7-1.46-1.34-3-2.12-4.34-.61-1.09-1.41-2.05-2.08-3.08-.15-.23-.32-.44-.45-.67-.5-.89-.42-1.29.32-1.91a5,5,0,0,1,.5-.42,1.4,1.4,0,0,1,1.87.22,17,17,0,0,1,2.18,2.68c.61,1,1.15,2,1.67,3,.77,1.54,1.47,3.13,2.2,4.69Z"/><path class="cls-2" d="M378.08,404.36a100.79,100.79,0,0,0,9.21-6.81c1.06-.9,2-1.88,3.09-2.82a97.37,97.37,0,0,0,10.31-10.6,41.28,41.28,0,0,0,3.72-5.38c.72-1.2,1.31-2.45,1.95-3.67.33-.6.68-1.2,1-1.81l.49-.92.45-.93c.4-.77.81-.56,1.11.33a7,7,0,0,1,0,4.18c-.12.36-.23.73-.36,1.09l-.5,1c-.32.68-.68,1.35-1,2s-.75,1.31-1.15,1.94-.81,1.27-1.24,1.88a49,49,0,0,1-5.71,6.89c-2.52,2.52-4.95,5.3-7.63,7.76a98.86,98.86,0,0,1-9.29,7.53c-2,1.44-4,2.77-6.13,4.07a90.28,90.28,0,0,1-9.89,5.18,52.86,52.86,0,0,1-8.11,3c-.62.14-1.23.33-1.88.43-2.41.31-3.23,0-3.74-.84a2.79,2.79,0,0,1-.33-.57c-.21-.66.7-1.21,2.23-1.62a51.48,51.48,0,0,0,6.82-2.43c1.13-.49,2.26-1,3.38-1.55s2.27-1.07,3.41-1.62a88.64,88.64,0,0,0,9.8-5.82Z"/><path class="cls-2" d="M363.31,432.48c1.11,2.06,2.32,4.06,3.55,6,.44.74,1,1.37,1.48,2.08.8,1.28,1.69,2.48,2.55,3.71s1.82,2.39,2.85,3.48a22.33,22.33,0,0,0,2.9,2.69,46.33,46.33,0,0,1,4,3c.38.37,0,.92-.7,1.27a3.29,3.29,0,0,1-2.85,0,28,28,0,0,1-7.93-7.7c-1.26-1.79-2.8-3.45-4.09-5.25-.73-1-1.37-2-2.05-3s-1.26-2.08-1.89-3.11c-.73-1.3-1.49-2.59-2.19-3.9-.54-1-1.07-2-1.58-3l-1.56-3-1.28-2.26c-.44-.74-.87-1.49-1.26-2.27-.18-.34-.38-.66-.54-1-.57-1.32-.5-1.84.16-2.42a3.94,3.94,0,0,1,.45-.38c.54-.35,1.25,0,1.85.82a71,71,0,0,1,4.79,8c1.12,2.05,2.2,4.15,3.41,6.16Z"/><path class="cls-2" d="M129,88.62a130.78,130.78,0,0,0-34.57,33.77,129.22,129.22,0,0,0-12,21.15c-.88,1.83-1.56,3.74-2.35,5.61S78.68,153,78,154.87s-1.23,3.87-1.76,5.82l-.76,2.95-.38,1.47-.32,1.48a104.18,104.18,0,0,0-2.41,17.56,115,115,0,0,0,.36,17.7,110.78,110.78,0,0,0,22.79,57.4,111.89,111.89,0,0,0,77.24,42.85,115.21,115.21,0,0,0,61.68-11.19,126.22,126.22,0,0,0,15.46-8.81,139.49,139.49,0,0,0,14.18-10.76c2.8-2.43,4.17-3.33,4.45-2.89s-.59,2.17-2.56,4.77a63.92,63.92,0,0,1-9.26,9.72,84.47,84.47,0,0,1-15.92,10.82A121.86,121.86,0,0,1,205,306a120.08,120.08,0,0,1-37.84.47,116.61,116.61,0,0,1-66.45-34.21,119.66,119.66,0,0,1-25-38.43,115.28,115.28,0,0,1-8.29-45.58A122.39,122.39,0,0,1,79.24,139a135.25,135.25,0,0,1,29.82-40.8,128,128,0,0,1,54-30.22A115.1,115.1,0,0,1,210,65.22a119.09,119.09,0,0,1,44,16,122.89,122.89,0,0,1,27.75,23.07,115.14,115.14,0,0,1,11,14.31,117.64,117.64,0,0,1,8.6,15.9,114.93,114.93,0,0,1,5.4,15c.29,1.21.58,2.37.85,3.48s.54,2.17.71,3.2.37,2,.54,3l.25,1.37.17,1.32c.2,1.72.4,3.28.53,4.69s.13,2.69.17,3.84a27.36,27.36,0,0,1-1,9.36,20.59,20.59,0,0,1-.95,2.76c-.55.92-.91-.62-1.28-4.12s-.84-9-2-15.86A106,106,0,0,0,301,147.28,104.26,104.26,0,0,0,295,132.65a113.17,113.17,0,0,0-18-26.34,115.44,115.44,0,0,0-54.76-33.58,110.36,110.36,0,0,0-48.21-2.18,119.39,119.39,0,0,0-45,18.15Z"/><path class="cls-2" d="M143.05,124.47a87.18,87.18,0,0,0-23,27.32,85.53,85.53,0,0,0-6.74,16.65,78.68,78.68,0,0,0-2.85,17.7,69.81,69.81,0,0,0,.69,13.08A79.92,79.92,0,0,0,114.08,212a75,75,0,0,0,26.48,37.13,75.85,75.85,0,0,0,43.26,15.18,76.66,76.66,0,0,0,39.77-9.78,85.16,85.16,0,0,0,20.74-16.27,100.17,100.17,0,0,0,15.31-21.5c2.48-4.88,3.37-3.8,2.43,1.08a43.41,43.41,0,0,1-3.43,9.57,58.79,58.79,0,0,1-8.1,12.06,99.71,99.71,0,0,1-10.25,10,97.58,97.58,0,0,1-11.72,8.24,93.7,93.7,0,0,1-12.94,6.2c-2.28.77-4.52,1.62-6.83,2.25s-4.65,1.2-7,1.65a82.43,82.43,0,0,1-28.63.36,80.42,80.42,0,0,1-26.9-9.74,84.46,84.46,0,0,1-25.68-23.17,78.47,78.47,0,0,1-13.68-32.11,77.56,77.56,0,0,1-1.07-19.18A82.59,82.59,0,0,1,107,174.4a85,85,0,0,1,2.32-9.31A87.32,87.32,0,0,1,117,147.54,91,91,0,0,1,128.06,132a88.74,88.74,0,0,1,38.7-25.73,82.56,82.56,0,0,1,17.39-3.66,82,82,0,0,1,84.19,54.17,79,79,0,0,1,3,11.63,59.32,59.32,0,0,1,.61,15.89,17.13,17.13,0,0,1-1.92,6.87,12.45,12.45,0,0,1-1.18,1.93c-.62.6-.86-.59-.91-3.21s0-6.7-.29-11.88a75.06,75.06,0,0,0-5-22.59,75.85,75.85,0,0,0-12-20.22,76.27,76.27,0,0,0-17.81-15.84,76,76,0,0,0-21.9-9.74,74.17,74.17,0,0,0-35.51-.64,81.13,81.13,0,0,0-17,6,85.36,85.36,0,0,0-15.27,9.6Z"/><path class="cls-2" d="M201.53,183.59A13.61,13.61,0,0,1,192.22,197a12.86,12.86,0,0,1-2.45.51,12.07,12.07,0,0,1-13.4-11.27,13.57,13.57,0,0,1,10.29-13.55,11.61,11.61,0,0,1,2-.29A12.18,12.18,0,0,1,201.48,183C201.5,183.2,201.51,183.4,201.53,183.59Z"/><path class="cls-2" d="M153.88,161.22a49.24,49.24,0,0,0-5.23,9.1,48.42,48.42,0,0,0-1.77,4.94c-.24.84-.51,1.68-.72,2.53l-.5,2.57c-.08.43-.19.86-.25,1.29l-.12,1.3-.26,2.61v3.93l.14,1.31.25,2.62c.07.87.33,1.71.48,2.58s.31,1.72.57,2.56l.8,2.5a42.42,42.42,0,0,0,7.61,13.23l1.11,1.28a11.26,11.26,0,0,0,1.15,1.24l2.46,2.35a46.85,46.85,0,0,0,5.48,4l1.44.92,1.51.77,1.53.77.76.38.79.31,3.19,1.23,3.29.9a43.91,43.91,0,0,0,27-2.13,46.43,46.43,0,0,0,10.56-6.23l2.37-2,2.19-2.15a29.65,29.65,0,0,0,2.07-2.26l1-1.16c.33-.39.61-.81.91-1.22a52.11,52.11,0,0,0,10.2-29c.13-3.22,1.39-3,2.66-.08a18.56,18.56,0,0,1,1.35,6.22,39.59,39.59,0,0,1-.15,4.25,34.36,34.36,0,0,1-1,4.67,53.71,53.71,0,0,1-20.44,28.08,51.13,51.13,0,0,1-16,7.43,44.47,44.47,0,0,1-8.73,1.38c-1.48,0-3,.11-4.43.12l-4.41-.33a49.77,49.77,0,0,1-20.07-6.92,46.65,46.65,0,0,1-15.32-14.94,47.61,47.61,0,0,1-7-22.28c0-1,0-2,0-2.95v-1.47c0-.49.08-1,.12-1.46l.29-2.93c.14-1,.35-1.92.53-2.88l.28-1.44c.09-.48.25-.94.38-1.42l.81-2.81c.31-.92.69-1.82,1-2.74a23.43,23.43,0,0,1,1.14-2.68,51.22,51.22,0,0,1,7.71-12,52,52,0,0,1,10.56-9.58A50,50,0,0,1,183,137.38a47.89,47.89,0,0,1,21.36,1.49,48.82,48.82,0,0,1,26.22,19.38,45.18,45.18,0,0,1,3.62,6.41,37.37,37.37,0,0,1,1.89,5.51,18.59,18.59,0,0,1,.69,3.9c.09,2.15-.06,3.4-.68,4.41a6.86,6.86,0,0,1-.79,1.32c-1,.88-1.75-2.63-3.63-8.39a44.52,44.52,0,0,0-28.46-27.87,40.08,40.08,0,0,0-13.76-1.88,33.54,33.54,0,0,0-5.18.44c-.86.14-1.72.3-2.57.48s-1.68.46-2.52.68a39.46,39.46,0,0,0-4.94,1.7,23.29,23.29,0,0,0-2.38,1.1c-.78.4-1.6.72-2.34,1.19a48,48,0,0,0-15.57,14Z"/><path class="cls-2" d="M438.08,272.85s-11.43,7-28.95-.36c0,0-12.93-7.16-11.62-20.19C404.39,263.17,422.52,271.72,438.08,272.85Z"/><path class="cls-2" d="M381.82,249.29q-13.19-5-26.31-10.19c-3.2-1.26-6.43-2.41-9.61-3.69q-16.83-6.81-33.47-14.06c-4.92-2.16-9.9-4.26-14.74-6.5L293,212.67c-1.55-.74-3.1-1.51-4.63-2.3a39,39,0,0,1-8.71-5.87c-1.62-1.69-.84-1.76.91-1.14.42.17,1,.31,1.59.5s1.24.43,2,.65a29.12,29.12,0,0,1,4.87,1.94c6.12,3.09,12.55,5.72,18.88,8.59l19.15,8.54C334.75,227,343,230,351,233.16c8.81,3.44,17.63,6.88,26.47,10.24,5.44,2.07,10.89,4.14,16.35,6.15,8.27,3.06,16.58,6.14,24.86,9,6.43,2.21,12.82,4.13,19.24,6.13,1.42.44,2.81.83,4.23,1.29a41.69,41.69,0,0,1,5.5,2.06,5.16,5.16,0,0,1,2.14,1.83,5.63,5.63,0,0,1,.55.88c.14.44-.38.64-1.43.63a18.51,18.51,0,0,1-4.62-.76c-11.67-3.14-23.69-7.21-35.72-11.45-8.92-3.16-17.84-6.46-26.74-9.76Z"/><path class="cls-2" d="M406.32,269.49a17.12,17.12,0,0,0,1.78,1.24c.62.37,1.21.8,1.87,1.12s1.3.71,1.95,1,1.31.6,2,.8c.5.16,1,.31,1.52.44s1.05.2,1.56.33a33.31,33.31,0,0,0,11.46.44,26.82,26.82,0,0,0,5-1.21,14.39,14.39,0,0,0,1.55-.57c.51-.2,1-.4,1.52-.63l.75-.31a5,5,0,0,1,.76-.29l1.6-.46c.68-.18.9.31.71,1.18a5.58,5.58,0,0,1-.62,1.57,4.08,4.08,0,0,1-.58.82,3.28,3.28,0,0,1-.84.57,29.57,29.57,0,0,1-14.31,3,48.09,48.09,0,0,1-9-.84c-.82-.16-1.61-.46-2.41-.69s-1.56-.6-2.34-.91l-2.2-1.1c-.74-.36-1.42-.85-2.13-1.26a11.47,11.47,0,0,1-1.25-.85L403.5,272c-.78-.64-1.55-1.31-2.28-2a29.74,29.74,0,0,1-5.45-7.34,31.32,31.32,0,0,1-2.8-6.43,8.35,8.35,0,0,1-.38-1.49,5.41,5.41,0,0,1,0-2.05,2.17,2.17,0,0,1,.71-1c.14-.1.27-.24.39-.31s.44,0,.73.3a4,4,0,0,1,.89,1.38c.39.91.81,1.79,1.15,2.69s.8,1.76,1.18,2.63a32.06,32.06,0,0,0,2.78,5,25,25,0,0,0,6,6.07Z"/><path class="cls-2" d="M416,241.78a30.86,30.86,0,0,1,9.58,2c.57.18,1.12.41,1.67.62s1.11.42,1.63.7a28,28,0,0,1,9.66,7.74,50.32,50.32,0,0,1,3.13,4.44c.61,1,1.21,1.94,1.74,2.94a13.36,13.36,0,0,1,.73,1.53c.18.54.35,1.08.48,1.65.08.73-.3.82-1.14.58a6,6,0,0,1-1.44-.63,4.19,4.19,0,0,1-.75-.52,3.72,3.72,0,0,1-.56-.73c-1.11-1.94-2.23-3.81-3.45-5.54a34.72,34.72,0,0,0-4.13-4.78,22.23,22.23,0,0,0-6.81-4,30.27,30.27,0,0,0-8.48-2.29,28.53,28.53,0,0,0-5.47-.14,30.58,30.58,0,0,0-8.18,1.71,23.59,23.59,0,0,0-2.94,1.33c-1,.45-1.89,1-2.83,1.51-.4.24-.79.51-1.21.71s-.73.35-1,.48a3.31,3.31,0,0,1-.79.17,2,2,0,0,1-1.1-.18,4.18,4.18,0,0,1-.42-.2c-.36-.24,0-1,1-2.08a26.18,26.18,0,0,1,5.19-3.56,33.15,33.15,0,0,1,6.11-2.3,34.82,34.82,0,0,1,9.82-1.18Z"/><path class="cls-2" d="M201.67,169.82a2.57,2.57,0,0,1-2.15,1.44c-.31.05-.86-.38-.78-.66a16.5,16.5,0,0,1,.54-1.59c.11-.33,3-4.75,4-6.21a50.32,50.32,0,0,1,3.13-4.13c2.25-2.7,4.5-5.38,6.81-8,.52-.58,1-1.14,1.62-1.67a72.89,72.89,0,0,0,5.44-5.82,4.79,4.79,0,0,0,.8-1,84.71,84.71,0,0,1,5.79-6.63c1.7-1.57,3.32-3.21,5-4.85a2.9,2.9,0,0,1,.72-.68,5.58,5.58,0,0,0,1.57-1.45c.66-.73,1.3-1.48,2-2.19a9.79,9.79,0,0,1,1.18-.92c.37-.26.58.19.52.35-.16.43.23.28.4.36a.38.38,0,0,1,.16.11,61.53,61.53,0,0,1-3.28,5.59l-2.74,3.52-3.13,3.95a8.76,8.76,0,0,1-1,1.07l-4.63,5.5a23.17,23.17,0,0,1-2.93,2.93,4,4,0,0,0-.58.59c-1.56,1.79-3.23,3.48-4.85,5.19-.84.88-1.6,1.82-2.4,2.72-.14.16-.32.3-.47.45a8.21,8.21,0,0,0-.59.59c-1.83,2.18-3.8,4.26-5.47,6.56-.41.52-2.59,2.78-3,3.42C203,168.64,201.82,169.47,201.67,169.82Z"/><path class="cls-2" d="M136.81,247.6a2.55,2.55,0,0,1-2.14,1.44c-.32,0-.86-.38-.78-.66a14.15,14.15,0,0,1,.54-1.59c.11-.33,3-4.75,4-6.21a48.78,48.78,0,0,1,3.14-4.13c2.25-2.7,4.5-5.39,6.81-8a23.32,23.32,0,0,1,1.62-1.68,74.63,74.63,0,0,0,5.44-5.81,5.83,5.83,0,0,0,.8-1,82.92,82.92,0,0,1,5.79-6.63c1.7-1.57,3.32-3.21,5-4.86a3,3,0,0,1,.71-.67,5.32,5.32,0,0,0,1.57-1.45c.66-.74,1.31-1.49,2-2.19a9,9,0,0,1,1.19-.92c.37-.27.57.19.52.34-.17.44.22.29.4.37a.31.31,0,0,1,.16.11,60.87,60.87,0,0,1-3.29,5.59l-2.73,3.51-3.13,4a8.84,8.84,0,0,1-1,1.07l-4.62,5.5a22.61,22.61,0,0,1-2.94,2.93,4,4,0,0,0-.58.59c-1.55,1.79-3.22,3.47-4.85,5.19-.83.88-1.59,1.82-2.39,2.72-.15.16-.32.3-.48.45a7.93,7.93,0,0,0-.58.58c-1.84,2.19-3.8,4.26-5.48,6.57-.4.52-2.58,2.78-3,3.42C138.18,246.42,137,247.24,136.81,247.6Z"/><path class="cls-2" d="M173.68,166.22a3.27,3.27,0,0,1,1,2.49c0,.29-.45.59-.69.42-.47-.35-.93-.7-1.36-1.09-.25-.24-3.91-4.36-5.23-5.7s-2.44-2.68-3.62-4.06l-7.29-8.35c-.54-.63-1.06-1.27-1.55-1.93-1.67-2.28-3.48-4.45-5.3-6.62a6.81,6.81,0,0,0-1-1,39.29,39.29,0,0,1-3-3.55c-1.32-1.7-2.6-3.46-2.87-3.89l-1.92-3.21-1.86-3.25a3,3,0,0,1-.47-1,6.42,6.42,0,0,0-1-2.08,31.82,31.82,0,0,1-1.47-2.84,11.23,11.23,0,0,1-.49-1.52c-.13-.46.37-.45.49-.33.36.35.34-.09.47-.21s.1-.1.15-.1a5.69,5.69,0,0,1,.65.76l1.35,1.7c1,1.26,2.07,2.54,2.24,2.82,0,0,.32.52.84,1.21l1.86,2.56c1.43,1.85,2.88,3.8,3.21,4.17a9.54,9.54,0,0,1,.86,1.31c.1.24,4.61,5.62,4.79,5.84a30.92,30.92,0,0,1,2.6,3.51,4,4,0,0,0,.53.7c1.62,1.92,3.13,3.93,4.69,5.91.8,1,1.65,2,2.47,3,.15.18.27.38.41.57s.33.48.52.71c2,2.33,3.82,4.76,5.82,7.08.47.53,2.35,3.34,2.88,4C172.78,164.53,173.39,165.94,173.68,166.22Z"/><path class="cls-2" d="M239.83,253.37a3.29,3.29,0,0,1,1,2.46c0,.3-.44.62-.68.44-.47-.34-.94-.68-1.38-1.06-.27-.23-4-4.34-5.25-5.71s-2.41-2.73-3.56-4.13l-7.08-8.54c-.52-.63-1-1.28-1.49-2-1.62-2.3-3.38-4.5-5.2-6.65a6.21,6.21,0,0,0-1-1c-.61-.47-5.42-6.4-6-7.22l-4.18-6.1a3.5,3.5,0,0,1-.56-.89,6.49,6.49,0,0,0-1.19-1.93c-.63-.85-1.25-1.7-1.83-2.59a9.81,9.81,0,0,1-.69-1.42c-.2-.43.29-.5.43-.4.4.29.32-.14.43-.28s.09-.11.14-.12a6,6,0,0,1,.76.65l1.59,1.51c1.16,1.12,2.37,2.3,2.58,2.56l6.53,7.58a10.76,10.76,0,0,1,.92,1.29l4.91,5.8a30.13,30.13,0,0,1,2.59,3.55,3.85,3.85,0,0,0,.52.7c1.59,2,3.06,4,4.57,6,.77,1,1.59,2,2.38,3,.15.19.26.39.39.58s.32.5.5.72c1.91,2.38,3.69,4.85,5.66,7.18.45.53,2.31,3.33,2.84,3.94C238.91,251.69,239.53,253.1,239.83,253.37Z"/><path class="cls-2" d="M325.25,87.34c.31.22-.24.41-1.29.73a4.66,4.66,0,0,1-1.51.13,3.61,3.61,0,0,1-.79-.52,18.31,18.31,0,0,1-.78-2.51,4.55,4.55,0,0,1-.09-1.68c.1-1.11.19-2.21.34-3.3a1.84,1.84,0,0,1,.25-.7,5.25,5.25,0,0,0,.71-2.41c0-.14.07-.27-.07-.44a5.77,5.77,0,0,1,.48-2.78c.5-.64.91-1.3,1.39-2,.07-.09.05-.23.27-.26.53-.06.52-.3.65-.52a3,3,0,0,1,.66-.84,1.81,1.81,0,0,1,.74-.2c.24,0,.83.4.88.48.14.23.48.29.75.43l.28.15a9.62,9.62,0,0,1,.66,2l-.07.38c0,.21-.07.52-.12.83a12.79,12.79,0,0,0-.12,1.43c0,.14-.14.25-.24.37s-.11,2-.13,2.08c-.13.38,0,.81-.52,1.12-.1.06-.09.14-.1.22a9.45,9.45,0,0,1-.56,2,6.19,6.19,0,0,0-.16,1.05c0,.06-.08.11-.11.17a.47.47,0,0,0-.12.23,10.67,10.67,0,0,0-.27,2.44c0,.18-.52,1-.45,1.23S325.13,87.23,325.25,87.34Z"/><path class="cls-2" d="M341.25,99.92c-.17.5-.77.29-1.7-.3a2.91,2.91,0,0,1-.9-1.17,5.09,5.09,0,0,1,.17-1.07,31.36,31.36,0,0,1,2.55-2.83A10.36,10.36,0,0,1,343.43,93c1.48-.92,2.95-1.82,4.44-2.66a4,4,0,0,1,1.06-.42,12.62,12.62,0,0,0,3.55-1.58c.18-.12.39-.19.5-.44a14.63,14.63,0,0,1,3.72-2.08c1.14-.21,2.24-.49,3.35-.75.16,0,.28-.17.5-.06a1.09,1.09,0,0,0,1.11-.07,7.26,7.26,0,0,1,1.4-.4,2.47,2.47,0,0,1,.87.17c.28.07.49.73.46.83-.09.29.21.5.36.74a1.74,1.74,0,0,1,.14.27,14.11,14.11,0,0,1-2.11,2.64l-3.85,2.5a1.47,1.47,0,0,1-.7.2c-.11,0-2.8,1.79-2.92,1.83a3.8,3.8,0,0,1-1.89.63.66.66,0,0,0-.38.14A25.81,25.81,0,0,1,350,95.84c-.53.23-1,.55-1.51.82a1.55,1.55,0,0,1-.31.07,1.21,1.21,0,0,0-.38.12,25.8,25.8,0,0,0-3.44,2.05c-.22.2-1.71.6-1.94.87S341.31,99.72,341.25,99.92Z"/></g></svg>